<?xml version="1.0" standalone="no"?>
<!DOCTYPE svg PUBLIC "-//W3C//DTD SVG 20010904//EN"
 "http://www.w3.org/TR/2001/REC-SVG-20010904/DTD/svg10.dtd">
<svg version="1.0" xmlns="http://www.w3.org/2000/svg"
 width="1113.000000pt" height="445.000000pt" viewBox="0 0 1113.000000 445.000000"
 preserveAspectRatio="xMidYMid meet">

<g transform="translate(0.000000,445.000000) scale(0.100000,-0.100000)"
fill="#000000" stroke="none">
<path d="M4640 4285 c-119 -39 -219 -124 -276 -237 -29 -57 -41 -108 -49 -213
-9 -116 -32 -217 -63 -282 -100 -208 -250 -333 -467 -389 l-90 -24 -1290 0
c-840 0 -1320 -4 -1374 -10 -134 -17 -275 -71 -392 -151 -175 -118 -305 -294
-375 -509 -26 -79 -28 -97 -28 -245 0 -148 2 -166 28 -245 70 -215 200 -391
375 -509 114 -77 254 -132 384 -150 53 -7 495 -11 1371 -11 l1293 0 95 -24
c107 -27 157 -50 243 -111 178 -126 270 -305 290 -560 8 -105 20 -156 49 -213
57 -112 156 -197 276 -237 l76 -25 2189 3 2190 2 116 22 c140 27 302 73 401
114 40 16 91 37 113 47 22 9 80 38 130 66 494 271 853 734 998 1286 89 338 89
752 0 1090 -153 584 -544 1065 -1078 1325 -139 69 -222 100 -356 139 -116 33
-119 33 -273 56 -134 20 -185 20 -2284 20 l-2147 -1 -75 -24z m4520 -8 c340
-53 665 -190 940 -395 161 -120 363 -337 473 -508 164 -254 273 -545 312 -834
19 -138 19 -492 0 -630 -48 -359 -198 -705 -430 -994 -321 -401 -775 -661
-1295 -744 -95 -15 -309 -16 -2255 -19 -2109 -3 -2151 -3 -2227 16 -43 11 -98
32 -122 46 -74 43 -146 122 -183 201 -30 63 -35 86 -43 194 -6 68 -19 153 -31
193 -76 255 -258 431 -513 497 -78 20 -106 20 -1365 20 -771 0 -1320 4 -1371
10 -88 10 -221 50 -300 90 -132 67 -273 192 -353 312 -142 215 -189 461 -132
684 84 325 317 575 625 669 30 9 71 22 90 28 24 7 456 12 1410 16 l1375 6 82
31 c297 112 457 335 483 674 8 108 13 131 43 194 61 128 178 220 319 251 53
11 417 13 2213 11 1935 -2 2160 -4 2255 -19z"/>
<path d="M4913 3938 c-48 -23 -29 -98 25 -98 16 0 33 5 40 12 20 20 14 65 -10
82 -26 18 -26 18 -55 4z m55 -17 c18 -11 11 -51 -10 -65 -23 -14 -52 3 -56 34
-4 23 12 40 38 40 8 0 21 -4 28 -9z"/>
<path d="M5142 3934 c-40 -28 -22 -94 27 -94 61 0 80 73 26 98 -32 15 -26 15
-53 -4z m68 -25 c9 -16 8 -25 -6 -40 -28 -31 -74 -18 -74 21 0 41 61 55 80 19z"/>
<path d="M5382 3939 c-12 -5 -24 -20 -28 -34 -14 -57 74 -93 98 -40 22 49 -19
93 -70 74z m58 -28 c5 -11 7 -26 4 -35 -8 -21 -42 -30 -59 -16 -15 13 -20 51
-8 63 13 14 53 6 63 -12z"/>
<path d="M5612 3934 c-24 -17 -30 -62 -10 -82 7 -7 24 -12 38 -12 33 0 50 17
50 51 0 24 -30 59 -50 59 -3 0 -16 -7 -28 -16z m56 -13 c18 -11 11 -51 -10
-65 -23 -14 -52 3 -56 34 -4 23 12 40 38 40 8 0 21 -4 28 -9z"/>
<path d="M5853 3939 c-27 -10 -39 -49 -23 -78 14 -27 61 -28 85 -1 36 40 -10
99 -62 79z m57 -30 c9 -16 8 -25 -6 -40 -24 -26 -52 -24 -66 6 -8 19 -8 28 2
40 18 22 57 19 70 -6z"/>
<path d="M6082 3938 c-52 -25 -30 -98 29 -98 49 0 67 66 27 94 -26 18 -25 18
-56 4z m58 -23 c29 -35 -26 -85 -58 -53 -13 13 -16 50 -5 61 12 12 50 7 63 -8z"/>
<path d="M6312 3934 c-24 -17 -30 -62 -10 -82 7 -7 24 -12 38 -12 33 0 50 17
50 51 0 24 -30 59 -50 59 -3 0 -16 -7 -28 -16z m56 -13 c18 -11 11 -51 -10
-65 -23 -14 -52 3 -56 34 -4 23 12 40 38 40 8 0 21 -4 28 -9z"/>
<path d="M6553 3939 c-27 -10 -39 -49 -23 -78 22 -43 100 -15 100 36 0 34 -40
56 -77 42z m57 -24 c14 -17 5 -51 -17 -59 -22 -9 -50 1 -57 20 -16 41 45 73
74 39z"/>
<path d="M6782 3938 c-31 -15 -39 -54 -17 -78 20 -22 65 -26 83 -8 20 20 14
65 -10 82 -26 18 -25 18 -56 4z m58 -23 c15 -18 10 -45 -12 -59 -33 -20 -69
20 -54 60 7 18 50 18 66 -1z"/>
<path d="M7012 3934 c-24 -17 -30 -62 -10 -82 7 -7 24 -12 38 -12 34 0 50 17
50 55 0 24 -6 35 -25 43 -32 15 -26 15 -53 -4z m63 -38 c0 -36 -27 -56 -52
-40 -40 25 -20 77 26 72 21 -2 26 -8 26 -32z"/>
<path d="M7253 3940 c-50 -20 -36 -100 17 -100 56 0 82 64 38 94 -25 18 -25
18 -55 6z m55 -22 c18 -18 14 -46 -8 -58 -41 -22 -81 12 -60 51 12 21 50 25
68 7z"/>
<path d="M7473 3926 c-27 -24 -27 -26 -13 -53 17 -31 61 -43 86 -22 22 18 17
65 -8 83 -29 21 -32 20 -65 -8z m67 -11 c26 -32 -13 -81 -47 -59 -35 22 -23
74 17 74 10 0 23 -7 30 -15z"/>
<path d="M7712 3934 c-24 -17 -30 -62 -10 -82 20 -20 66 -14 82 11 20 29 11
62 -20 76 -30 14 -25 14 -52 -5z m66 -41 c3 -28 -1 -33 -23 -39 -29 -7 -55 10
-55 35 0 25 22 42 50 39 20 -2 26 -9 28 -35z"/>
<path d="M7960 3943 c-21 -7 -40 -33 -40 -54 0 -40 69 -66 98 -37 20 20 14 65
-10 82 -24 17 -25 17 -48 9z m48 -25 c30 -30 -6 -76 -48 -63 -20 6 -29 53 -13
68 11 11 48 8 61 -5z"/>
<path d="M8188 3939 c-52 -30 -37 -99 22 -99 60 0 74 71 20 100 -22 12 -21 12
-42 -1z m52 -24 c26 -32 -13 -81 -47 -59 -35 22 -23 74 17 74 10 0 23 -7 30
-15z"/>
<path d="M8412 3934 c-24 -17 -30 -62 -10 -82 20 -20 65 -14 82 10 19 27 20
39 4 60 -20 25 -51 30 -76 12z m66 -41 c2 -24 -1 -33 -17 -38 -26 -8 -61 11
-61 33 0 26 21 43 50 40 20 -2 26 -9 28 -35z"/>
<path d="M8657 3943 c-29 -7 -41 -51 -22 -79 17 -26 62 -33 83 -12 20 20 14
65 -10 82 -12 9 -25 15 -28 15 -3 -1 -13 -3 -23 -6z m51 -25 c30 -30 -6 -76
-48 -63 -20 6 -29 53 -13 68 11 11 48 8 61 -5z"/>
<path d="M8888 3939 c-52 -30 -37 -99 22 -99 60 0 74 71 20 100 -22 12 -21 12
-42 -1z m52 -24 c26 -32 -13 -81 -47 -59 -35 22 -23 74 17 74 10 0 23 -7 30
-15z"/>
<path d="M9112 3934 c-24 -16 -28 -44 -12 -75 13 -23 62 -26 84 -3 45 45 -20
115 -72 78z m68 -23 c21 -39 -19 -73 -60 -51 -22 12 -26 40 -8 58 18 18 56 14
68 -7z"/>
<path d="M9353 3938 c-27 -13 -34 -39 -19 -70 13 -26 59 -36 82 -17 22 18 17
65 -8 83 -26 18 -26 18 -55 4z m57 -23 c15 -18 10 -45 -12 -59 -33 -20 -69 20
-54 60 7 18 50 18 66 -1z"/>
<path d="M4896 3687 c-33 -49 21 -104 70 -72 26 17 33 62 12 83 -20 20 -66 14
-82 -11z m74 -1 c6 -8 10 -25 8 -38 -2 -19 -9 -23 -38 -23 -29 0 -36 4 -38 23
-4 28 14 52 38 52 10 0 23 -7 30 -14z"/>
<path d="M5130 3691 c-17 -32 -11 -60 15 -77 52 -34 111 31 70 76 -23 26 -71
26 -85 1z m74 -10 c34 -38 -26 -85 -62 -49 -16 16 -15 33 4 52 21 21 37 20 58
-3z"/>
<path d="M5365 3690 c-41 -45 18 -110 70 -76 26 17 32 45 15 77 -14 25 -62 25
-85 -1z m69 -6 c19 -19 20 -25 3 -48 -19 -26 -61 -18 -65 12 -7 44 32 67 62
36z"/>
<path d="M5602 3698 c-7 -7 -12 -26 -12 -43 0 -25 6 -35 26 -44 36 -16 74 8
74 47 0 35 -16 52 -50 52 -14 0 -31 -5 -38 -12z m68 -12 c6 -8 10 -25 8 -38
-2 -19 -9 -23 -38 -23 -29 0 -36 4 -38 23 -4 28 14 52 38 52 10 0 23 -7 30
-14z"/>
<path d="M5830 3691 c-17 -32 -11 -60 15 -77 52 -34 111 31 70 76 -23 26 -71
26 -85 1z m76 -12 c22 -24 10 -52 -25 -57 -43 -7 -65 32 -35 62 21 21 37 20
60 -5z"/>
<path d="M6065 3690 c-40 -45 20 -109 71 -75 26 17 30 44 14 76 -14 25 -62 25
-85 -1z m69 -6 c31 -30 8 -69 -36 -62 -26 3 -37 41 -18 64 16 18 35 18 54 -2z"/>
<path d="M6302 3698 c-21 -21 -14 -66 12 -83 37 -25 76 -5 76 38 0 40 -15 57
-50 57 -14 0 -31 -5 -38 -12z m66 -10 c17 -17 15 -57 -3 -64 -8 -4 -26 -3 -40
0 -41 11 -28 76 15 76 9 0 21 -5 28 -12z"/>
<path d="M6536 3694 c-9 -8 -16 -24 -16 -35 0 -21 33 -59 53 -59 24 0 57 31
57 54 0 47 -62 73 -94 40z m70 -15 c14 -15 16 -24 8 -37 -16 -24 -55 -28 -71
-6 -17 23 -16 29 3 48 21 21 37 20 60 -5z"/>
<path d="M6765 3690 c-40 -45 20 -109 71 -75 26 17 30 44 14 76 -14 25 -62 25
-85 -1z m69 -6 c31 -30 8 -69 -36 -62 -26 3 -37 41 -18 64 16 18 35 18 54 -2z"/>
<path d="M7002 3698 c-21 -21 -15 -66 12 -83 48 -31 98 15 72 67 -13 26 -64
36 -84 16z m66 -10 c17 -17 15 -57 -3 -64 -30 -12 -65 5 -65 31 0 36 44 57 68
33z"/>
<path d="M7235 3690 c-23 -25 -13 -67 20 -82 53 -24 100 46 57 85 -25 23 -55
21 -77 -3z m69 -6 c29 -29 12 -64 -31 -64 -19 0 -43 25 -43 44 0 10 32 36 45
36 7 0 21 -7 29 -16z"/>
<path d="M7464 3685 c-32 -50 22 -103 72 -70 26 17 33 62 12 83 -21 21 -66 14
-84 -13z m76 0 c7 -9 10 -25 6 -40 -6 -22 -11 -26 -39 -23 -25 2 -33 8 -35 26
-7 44 41 70 68 37z"/>
<path d="M7702 3698 c-20 -20 -14 -66 11 -82 50 -33 105 21 72 70 -17 26 -62
33 -83 12z m68 -12 c19 -23 8 -61 -18 -64 -45 -7 -72 46 -34 67 24 14 38 13
52 -3z"/>
<path d="M7934 3685 c-20 -30 -11 -62 21 -77 52 -23 99 46 59 86 -23 24 -61
20 -80 -9z m67 5 c39 -21 13 -75 -33 -68 -40 5 -35 77 5 78 5 0 17 -5 28 -10z"/>
<path d="M8166 3688 c-20 -30 -11 -63 20 -77 47 -21 93 25 71 70 -18 34 -70
39 -91 7z m74 -3 c7 -8 10 -25 6 -40 -5 -20 -13 -25 -36 -25 -23 0 -31 5 -36
25 -7 29 10 55 36 55 10 0 23 -7 30 -15z"/>
<path d="M8406 3694 c-40 -40 7 -109 59 -86 32 15 41 47 21 77 -19 29 -57 33
-80 9z m64 -8 c19 -23 8 -61 -18 -64 -45 -7 -72 46 -34 67 24 14 38 13 52 -3z"/>
<path d="M8636 3687 c-33 -50 21 -105 70 -72 30 20 33 70 5 85 -31 16 -59 12
-75 -13z m65 3 c39 -21 13 -75 -33 -68 -26 3 -37 41 -18 64 15 17 25 18 51 4z"/>
<path d="M8865 3686 c-19 -28 -9 -58 25 -76 24 -13 54 0 70 31 17 30 -11 69
-50 69 -20 0 -35 -8 -45 -24z m75 0 c6 -8 10 -25 8 -38 -2 -18 -10 -24 -35
-26 -28 -3 -33 1 -39 23 -11 45 37 75 66 41z"/>
<path d="M9106 3694 c-41 -40 7 -109 59 -86 14 6 27 23 31 37 13 50 -53 86
-90 49z m68 -10 c19 -18 19 -20 6 -45 -12 -21 -50 -25 -68 -7 -17 17 -15 45 6
57 24 15 38 13 56 -5z"/>
<path d="M9342 3698 c-25 -31 -17 -76 14 -89 20 -7 32 -6 50 6 26 17 33 62 12
83 -16 16 -63 15 -76 0z m59 -8 c39 -21 13 -75 -33 -68 -26 3 -37 41 -18 64
15 17 25 18 51 4z"/>
<path d="M4912 3473 c-7 -3 -18 -16 -23 -30 -13 -36 12 -73 49 -73 35 0 52 17
52 51 0 45 -36 69 -78 52z m52 -16 c38 -27 -2 -95 -41 -71 -25 16 -29 55 -7
71 10 7 21 13 24 13 3 0 14 -6 24 -13z"/>
<path d="M5137 3462 c-33 -37 -11 -92 37 -92 26 0 56 29 56 53 0 23 -35 57
-58 57 -11 0 -26 -8 -35 -18z m65 -9 c22 -20 23 -31 1 -55 -21 -24 -50 -23
-63 1 -14 27 -13 37 6 55 20 20 33 20 56 -1z"/>
<path d="M5370 3460 c-11 -11 -20 -28 -20 -38 0 -24 31 -52 58 -52 47 0 69 61
34 93 -25 22 -48 21 -72 -3z m65 -14 c29 -43 -18 -89 -53 -54 -25 25 -8 78 25
78 7 0 20 -11 28 -24z"/>
<path d="M5606 3467 c-21 -16 -24 -60 -6 -82 15 -18 61 -20 78 -3 20 20 15 76
-7 88 -26 13 -43 13 -65 -3z m58 -10 c22 -16 18 -55 -6 -71 -40 -24 -80 44
-42 71 10 7 21 13 24 13 3 0 14 -6 24 -13z"/>
<path d="M5837 3462 c-33 -37 -11 -92 37 -92 51 0 74 66 34 94 -29 21 -51 20
-71 -2z m65 -9 c22 -20 23 -31 1 -55 -21 -24 -50 -23 -63 1 -14 27 -13 37 6
55 20 20 33 20 56 -1z"/>
<path d="M6070 3460 c-11 -11 -20 -28 -20 -38 0 -24 31 -52 58 -52 47 0 69 61
34 93 -25 22 -48 21 -72 -3z m64 -6 c19 -18 20 -28 6 -55 -20 -36 -70 -17 -70
26 0 41 36 58 64 29z"/>
<path d="M6308 3469 c-21 -12 -24 -69 -6 -87 7 -7 24 -12 38 -12 35 0 50 17
50 57 0 45 -41 66 -82 42z m56 -12 c22 -16 18 -55 -6 -71 -40 -24 -80 44 -42
71 10 7 21 13 24 13 3 0 14 -6 24 -13z"/>
<path d="M6536 3458 c-20 -29 -20 -52 0 -72 33 -34 94 -7 94 42 0 23 -34 52
-62 52 -9 0 -24 -10 -32 -22z m66 -5 c23 -21 23 -36 -1 -57 -39 -36 -85 6 -56
50 18 28 32 30 57 7z"/>
<path d="M6770 3460 c-11 -11 -20 -26 -20 -33 0 -24 31 -57 55 -57 50 0 73 60
37 93 -25 22 -48 21 -72 -3z m64 -6 c19 -18 20 -28 6 -55 -12 -21 -40 -25 -58
-7 -18 18 -15 55 6 67 23 14 28 14 46 -5z"/>
<path d="M7006 3464 c-23 -22 -20 -71 3 -84 46 -24 84 -3 84 47 0 46 -55 69
-87 37z m58 -7 c22 -16 18 -55 -6 -71 -40 -24 -80 44 -42 71 10 7 21 13 24 13
3 0 14 -6 24 -13z"/>
<path d="M7240 3460 c-24 -24 -25 -38 -4 -68 18 -27 55 -29 77 -4 22 24 21 55
-1 75 -25 22 -48 21 -72 -3z m64 -9 c31 -34 0 -80 -44 -66 -24 8 -31 39 -13
64 18 26 35 27 57 2z"/>
<path d="M7470 3460 c-24 -24 -25 -38 -4 -68 20 -28 69 -30 84 -3 14 28 12 57
-6 75 -21 22 -50 20 -74 -4z m64 -6 c19 -18 20 -28 6 -55 -12 -21 -40 -25 -58
-7 -18 18 -15 55 6 67 23 14 28 14 46 -5z"/>
<path d="M7707 3462 c-23 -25 -22 -69 2 -82 31 -16 59 -12 75 12 21 30 20 44
-4 68 -25 25 -52 26 -73 2z m57 -5 c38 -27 -2 -95 -41 -71 -24 15 -28 48 -8
68 20 19 26 20 49 3z"/>
<path d="M7940 3460 c-11 -11 -20 -26 -20 -33 0 -24 31 -57 55 -57 50 0 73 60
37 93 -25 22 -48 21 -72 -3z m64 -9 c31 -35 0 -80 -45 -66 -34 11 -19 85 16
85 7 0 20 -9 29 -19z"/>
<path d="M8170 3458 c-24 -26 -25 -37 -4 -66 35 -51 120 -2 92 52 -22 42 -57
48 -88 14z m65 -4 c33 -33 -4 -92 -42 -68 -10 6 -19 20 -21 31 -3 20 21 53 38
53 5 0 16 -7 25 -16z"/>
<path d="M8407 3462 c-34 -37 -11 -92 38 -92 24 0 55 33 55 57 0 19 -37 53
-58 53 -11 0 -26 -8 -35 -18z m64 -13 c18 -18 19 -23 6 -42 -17 -26 -43 -33
-62 -17 -20 16 -19 39 2 62 21 23 28 23 54 -3z"/>
<path d="M8640 3460 c-11 -11 -20 -26 -20 -33 0 -24 31 -57 55 -57 50 0 73 60
37 93 -25 22 -48 21 -72 -3z m65 -10 c35 -38 -17 -94 -53 -58 -18 18 -15 55 6
67 24 14 26 14 47 -9z"/>
<path d="M8884 3472 c-6 -4 -16 -16 -22 -28 -28 -54 57 -103 92 -52 21 29 20
40 -4 66 -21 22 -46 28 -66 14z m50 -15 c38 -27 -2 -95 -41 -71 -24 15 -28 48
-8 68 20 19 26 20 49 3z"/>
<path d="M9107 3462 c-34 -37 -11 -92 38 -92 24 0 55 33 55 57 0 19 -37 53
-58 53 -11 0 -26 -8 -35 -18z m68 -16 c17 -26 12 -51 -12 -60 -44 -17 -78 31
-47 65 23 25 40 24 59 -5z"/>
<path d="M9346 3467 c-36 -26 -16 -97 26 -97 54 0 79 58 40 93 -22 20 -42 21
-66 4z m59 -13 c20 -20 16 -53 -7 -68 -40 -24 -80 44 -42 71 23 17 29 16 49
-3z"/>
<path d="M4895 3216 c-19 -28 -9 -58 26 -76 45 -25 94 51 57 88 -21 21 -66 14
-83 -12z m73 2 c30 -30 0 -75 -43 -64 -19 5 -25 13 -25 35 0 38 41 56 68 29z"/>
<path d="M5131 3226 c-20 -24 -9 -69 21 -85 25 -15 29 -14 52 8 30 28 33 53
10 75 -19 20 -68 21 -83 2z m73 -12 c9 -8 16 -19 16 -24 0 -15 -31 -40 -49
-40 -21 0 -41 19 -41 40 0 38 46 53 74 24z"/>
<path d="M5366 3224 c-22 -21 -20 -46 4 -72 26 -27 44 -28 70 -2 22 22 25 42
10 71 -13 23 -62 26 -84 3z m74 -14 c16 -31 -4 -62 -38 -58 -28 3 -40 32 -28
64 8 21 54 17 66 -6z"/>
<path d="M5602 3228 c-21 -21 -14 -66 13 -84 23 -15 27 -15 50 0 17 11 25 26
25 44 0 35 -16 52 -50 52 -14 0 -31 -5 -38 -12z m68 -13 c26 -32 -13 -81 -47
-59 -35 22 -23 74 17 74 10 0 23 -7 30 -15z"/>
<path d="M5830 3221 c-5 -11 -10 -27 -10 -35 0 -19 35 -56 53 -56 20 0 57 39
57 60 0 46 -78 70 -100 31z m74 -7 c9 -8 16 -19 16 -24 0 -15 -31 -40 -50 -40
-27 0 -44 34 -30 60 13 24 43 26 64 4z"/>
<path d="M6066 3224 c-23 -22 -20 -47 10 -75 23 -22 27 -23 52 -8 30 16 39 47
22 78 -13 25 -61 28 -84 5z m74 -14 c22 -40 -26 -80 -58 -48 -16 16 -15 55 1
61 26 11 47 6 57 -13z"/>
<path d="M6302 3228 c-21 -21 -14 -66 13 -84 23 -15 27 -15 50 0 17 11 25 26
25 44 0 35 -16 52 -50 52 -14 0 -31 -5 -38 -12z m62 -4 c10 -4 16 -18 16 -35
0 -22 -6 -30 -25 -35 -43 -11 -73 34 -43 64 13 13 28 15 52 6z"/>
<path d="M6530 3221 c-5 -11 -10 -27 -10 -35 0 -20 35 -56 55 -56 21 0 55 36
55 59 0 47 -78 71 -100 32z m82 -16 c8 -19 8 -28 -2 -40 -32 -38 -94 1 -70 45
16 29 58 26 72 -5z"/>
<path d="M6766 3221 c-23 -25 -18 -49 16 -74 25 -19 28 -19 52 -3 28 18 35 63
14 84 -18 18 -63 14 -82 -7z m74 -6 c26 -32 -13 -81 -47 -59 -35 22 -23 74 17
74 10 0 23 -7 30 -15z"/>
<path d="M7002 3228 c-37 -37 11 -113 57 -88 32 16 42 42 28 71 -14 27 -64 38
-85 17z m62 -4 c10 -4 16 -18 16 -35 0 -22 -6 -30 -25 -35 -43 -11 -73 34 -43
64 13 13 28 15 52 6z"/>
<path d="M7230 3219 c-29 -52 26 -107 75 -75 31 21 35 70 6 86 -32 17 -69 12
-81 -11z m84 -11 c15 -24 -3 -52 -37 -56 -33 -4 -53 28 -37 59 14 25 58 23 74
-3z"/>
<path d="M7464 3215 c-19 -30 -14 -48 20 -71 24 -15 28 -15 51 0 27 18 34 63
13 84 -21 21 -66 14 -84 -13z m76 0 c26 -32 -13 -81 -47 -59 -35 22 -23 74 17
74 10 0 23 -7 30 -15z"/>
<path d="M7702 3228 c-21 -21 -14 -66 12 -83 28 -19 75 -5 78 22 3 34 -3 57
-15 65 -18 12 -62 9 -75 -4z m62 -4 c10 -4 16 -18 16 -35 0 -22 -6 -30 -25
-35 -43 -11 -73 34 -43 64 13 13 28 15 52 6z"/>
<path d="M7944 3232 c-18 -12 -26 -50 -15 -71 16 -28 48 -35 76 -17 27 18 34
63 13 84 -13 13 -57 16 -74 4z m70 -24 c16 -26 -4 -53 -40 -53 -23 0 -30 5
-32 23 -2 13 -1 30 2 38 8 20 56 14 70 -8z"/>
<path d="M8165 3216 c-19 -28 -9 -58 25 -76 24 -13 54 0 70 31 17 30 -11 69
-50 69 -20 0 -35 -8 -45 -24z m75 -1 c26 -32 -13 -81 -47 -59 -35 22 -23 74
17 74 10 0 23 -7 30 -15z"/>
<path d="M8402 3228 c-39 -39 9 -108 61 -89 39 15 46 70 13 93 -17 12 -61 9
-74 -4z m62 -4 c10 -4 16 -18 16 -35 0 -22 -6 -30 -25 -35 -43 -11 -73 34 -43
64 13 13 28 15 52 6z"/>
<path d="M8643 3232 c-12 -8 -18 -31 -15 -65 3 -27 50 -41 78 -22 26 17 33 62
12 83 -13 13 -57 16 -75 4z m65 -14 c30 -30 0 -75 -43 -64 -19 5 -25 13 -25
35 0 38 41 56 68 29z"/>
<path d="M8865 3216 c-19 -28 -9 -58 25 -76 24 -13 54 0 70 31 17 30 -11 69
-50 69 -20 0 -35 -8 -45 -24z m75 -1 c26 -32 -13 -81 -47 -59 -35 22 -23 74
17 74 10 0 23 -7 30 -15z"/>
<path d="M9102 3228 c-20 -20 -14 -65 10 -82 30 -21 44 -20 68 4 24 24 26 53
4 74 -18 19 -65 21 -82 4z m78 -18 c8 -14 8 -26 0 -40 -19 -35 -80 -20 -80 20
0 40 61 55 80 20z"/>
<path d="M9342 3228 c-41 -51 12 -118 65 -82 25 16 31 62 11 82 -16 16 -63 15
-76 0z m66 -10 c30 -30 0 -75 -43 -64 -19 5 -25 13 -25 35 0 38 41 56 68 29z"/>
<path d="M925 2986 c-34 -51 30 -111 75 -71 25 23 26 57 2 78 -26 24 -59 21
-77 -7z m69 -2 c31 -30 8 -69 -36 -62 -30 4 -38 46 -12 65 23 17 29 16 48 -3z"/>
<path d="M1168 2999 c-28 -16 -24 -73 7 -89 50 -27 96 21 71 72 -13 25 -51 34
-78 17z m56 -12 c29 -21 17 -61 -18 -65 -43 -5 -61 32 -30 62 19 19 25 20 48
3z"/>
<path d="M1396 2991 c-24 -26 -17 -62 15 -80 24 -13 29 -13 53 2 31 21 34 56
8 80 -25 22 -55 21 -76 -2z m70 -12 c24 -26 8 -54 -31 -54 -39 0 -55 28 -31
54 24 26 38 26 62 0z"/>
<path d="M1632 2998 c-24 -30 -18 -76 13 -90 39 -18 75 6 75 48 0 23 -6 37
-19 44 -26 14 -56 13 -69 -2z m62 -14 c31 -30 13 -67 -30 -62 -35 4 -47 44
-18 65 23 17 29 16 48 -3z"/>
<path d="M1867 2992 c-23 -25 -21 -55 3 -77 45 -40 109 20 75 71 -19 29 -55
31 -78 6z m57 -5 c26 -19 18 -61 -12 -65 -44 -7 -67 32 -36 62 19 19 25 20 48
3z"/>
<path d="M2096 2991 c-24 -26 -17 -62 15 -80 24 -13 29 -13 53 2 31 21 34 56
8 80 -25 22 -55 21 -76 -2z m68 -7 c30 -30 8 -69 -35 -62 -35 5 -47 33 -25 57
23 25 39 26 60 5z"/>
<path d="M3032 2998 c-17 -17 -15 -64 4 -82 45 -45 114 17 79 70 -17 26 -62
33 -83 12z m62 -11 c11 -8 17 -23 14 -38 -2 -20 -8 -24 -38 -24 -30 0 -36 4
-38 24 -4 22 18 51 38 51 3 0 14 -6 24 -13z"/>
<path d="M3267 2992 c-23 -25 -21 -55 3 -77 25 -23 67 -13 82 20 24 53 -46
100 -85 57z m57 -5 c11 -8 17 -23 14 -38 -2 -19 -9 -24 -32 -24 -40 0 -56 27
-32 54 22 25 26 25 50 8z"/>
<path d="M3494 2985 c-21 -33 -6 -72 31 -81 50 -13 86 53 49 90 -24 24 -61 20
-80 -9z m70 2 c11 -8 17 -23 14 -38 -2 -19 -10 -25 -35 -27 -44 -4 -63 28 -33
58 24 24 30 24 54 7z"/>
<path d="M3729 2986 c-16 -35 -4 -74 25 -82 53 -13 91 37 62 81 -23 34 -72 35
-87 1z m71 -6 c28 -28 11 -60 -30 -60 -24 0 -31 5 -36 27 -5 19 -2 30 11 40
25 17 31 17 55 -7z"/>
<path d="M3967 2992 c-23 -25 -21 -55 3 -77 46 -41 116 29 75 75 -23 25 -57
26 -78 2z m63 -6 c20 -25 8 -61 -22 -64 -36 -4 -53 26 -32 56 18 25 37 28 54
8z"/>
<path d="M4194 2985 c-13 -21 -15 -31 -6 -50 25 -55 102 -35 102 26 0 51 -68
67 -96 24z m70 2 c11 -8 17 -23 14 -38 -2 -20 -8 -24 -38 -24 -30 0 -36 4 -38
24 -4 22 18 51 38 51 3 0 14 -6 24 -13z"/>
<path d="M4436 2994 c-37 -37 -1 -103 49 -90 14 4 31 17 37 31 23 52 -46 100
-86 59z m64 -12 c19 -16 21 -22 11 -40 -21 -39 -81 -26 -81 18 0 11 29 40 40
40 4 0 18 -8 30 -18z"/>
<path d="M4666 2991 c-24 -26 -17 -62 15 -80 24 -13 29 -13 53 2 31 21 34 56
8 80 -25 22 -55 21 -76 -2z m68 -13 c21 -30 4 -60 -32 -56 -30 3 -42 39 -22
64 17 20 36 17 54 -8z"/>
<path d="M4895 2986 c-32 -48 22 -104 74 -76 28 15 29 75 2 90 -32 16 -59 12
-76 -14z m69 1 c11 -8 17 -23 14 -38 -2 -20 -8 -24 -38 -24 -30 0 -36 4 -38
24 -4 22 18 51 38 51 3 0 14 -6 24 -13z"/>
<path d="M5136 2994 c-41 -40 7 -109 59 -86 14 6 27 23 31 37 13 50 -53 86
-90 49z m65 -13 c20 -16 22 -23 13 -38 -6 -10 -24 -19 -39 -21 -42 -5 -60 32
-29 62 20 21 27 20 55 -3z"/>
<path d="M5366 2991 c-24 -26 -17 -62 15 -80 24 -13 29 -13 53 2 31 21 34 56
8 80 -25 22 -55 21 -76 -2z m68 -7 c19 -19 20 -25 3 -48 -8 -11 -23 -17 -38
-14 -31 4 -39 46 -13 65 23 17 29 16 48 -3z"/>
<path d="M5602 2998 c-7 -7 -12 -27 -12 -45 0 -26 6 -36 25 -45 40 -18 75 3
75 45 0 40 -15 57 -50 57 -14 0 -31 -5 -38 -12z m62 -11 c11 -8 17 -23 14 -38
-2 -20 -8 -24 -38 -24 -30 0 -36 4 -38 24 -4 22 18 51 38 51 3 0 14 -6 24 -13z"/>
<path d="M5836 2994 c-25 -24 -20 -61 10 -81 24 -15 29 -15 53 -2 32 18 39 54
15 80 -21 23 -57 25 -78 3z m65 -13 c20 -16 22 -23 13 -38 -6 -10 -24 -19 -39
-21 -42 -5 -60 32 -29 62 20 21 27 20 55 -3z"/>
<path d="M6065 2990 c-41 -46 29 -116 75 -75 25 23 26 57 2 78 -25 23 -55 21
-77 -3z m69 -6 c31 -30 13 -67 -30 -62 -35 4 -47 44 -18 65 23 17 29 16 48 -3z"/>
<path d="M6308 2999 c-12 -6 -18 -22 -18 -45 0 -27 5 -37 25 -46 40 -18 75 3
75 45 0 52 -37 73 -82 46z m56 -12 c11 -8 17 -23 14 -38 -2 -20 -8 -24 -38
-24 -30 0 -36 4 -38 24 -4 22 18 51 38 51 3 0 14 -6 24 -13z"/>
<path d="M6536 2991 c-24 -26 -17 -62 15 -80 24 -13 29 -13 53 2 31 21 34 56
8 80 -25 22 -55 21 -76 -2z m70 -12 c22 -24 10 -52 -25 -57 -43 -7 -65 32 -35
62 21 21 37 20 60 -5z"/>
<path d="M6764 2985 c-21 -33 -6 -72 31 -81 50 -13 86 53 49 90 -24 24 -61 20
-80 -9z m70 -1 c31 -30 13 -67 -30 -62 -35 4 -47 44 -18 65 23 17 29 16 48 -3z"/>
<path d="M7008 2999 c-24 -14 -23 -62 2 -84 42 -38 102 14 76 66 -13 26 -50
35 -78 18z m56 -12 c11 -8 17 -23 14 -38 -2 -20 -8 -24 -38 -24 -30 0 -36 4
-38 24 -4 22 18 51 38 51 3 0 14 -6 24 -13z"/>
<path d="M7235 2990 c-23 -25 -13 -67 20 -82 53 -24 100 46 57 85 -25 23 -55
21 -77 -3z m71 -11 c23 -25 9 -53 -29 -57 -35 -4 -52 26 -31 56 19 27 36 28
60 1z"/>
<path d="M7464 2985 c-34 -52 31 -111 76 -70 38 34 18 95 -30 95 -21 0 -35 -8
-46 -25z m70 -1 c31 -30 13 -67 -30 -62 -35 4 -47 44 -18 65 23 17 29 16 48
-3z"/>
<path d="M7706 2994 c-37 -37 -1 -103 49 -90 14 4 31 17 37 31 23 52 -46 100
-86 59z m55 -4 c23 -13 26 -58 4 -66 -8 -4 -26 -3 -40 0 -30 8 -35 49 -7 65
21 13 20 13 43 1z"/>
<path d="M7934 2985 c-21 -33 -6 -72 31 -81 52 -13 86 53 47 89 -27 24 -59 21
-78 -8z m72 -6 c24 -27 8 -54 -32 -54 -23 0 -30 5 -32 24 -3 15 3 30 14 38 24
17 28 17 50 -8z"/>
<path d="M8164 2985 c-13 -21 -15 -31 -6 -50 21 -45 93 -42 105 4 15 59 -65
97 -99 46z m71 2 c13 -10 16 -21 11 -41 -6 -24 -11 -27 -39 -24 -25 2 -33 8
-35 27 -3 15 3 30 14 38 22 16 26 16 49 0z"/>
<path d="M8407 2992 c-23 -25 -21 -55 3 -77 25 -23 67 -13 82 20 24 53 -46
100 -85 57z m57 -5 c26 -19 18 -61 -12 -65 -45 -7 -72 46 -34 67 22 13 25 13
46 -2z"/>
<path d="M8634 2985 c-21 -33 -6 -72 31 -81 52 -13 86 53 47 89 -27 24 -59 21
-78 -8z m67 5 c39 -21 13 -75 -33 -68 -30 4 -38 46 -12 65 21 16 20 16 45 3z"/>
<path d="M8872 2998 c-23 -28 -18 -74 9 -88 52 -28 106 28 74 76 -17 26 -65
33 -83 12z m62 -11 c11 -8 17 -23 14 -38 -2 -19 -10 -25 -35 -27 -28 -3 -33 0
-39 24 -5 20 -2 31 11 41 23 16 27 16 49 0z"/>
<path d="M9107 2992 c-24 -27 -21 -59 8 -78 33 -21 72 -6 81 31 13 52 -53 86
-89 47z m63 -10 c19 -16 21 -22 11 -40 -19 -36 -81 -24 -81 16 0 14 27 41 41
42 4 0 17 -8 29 -18z"/>
<path d="M9340 2995 c-30 -36 -4 -95 40 -95 23 0 50 32 50 60 0 42 -63 67 -90
35z m61 -5 c39 -21 13 -75 -33 -68 -30 4 -38 46 -12 65 21 16 20 16 45 3z"/>
<path d="M942 2773 c-7 -3 -18 -16 -23 -30 -13 -36 12 -73 49 -73 35 0 52 17
52 51 0 40 -41 67 -78 52z m64 -38 c8 -20 -14 -55 -34 -55 -40 0 -59 60 -25
79 20 11 51 -2 59 -24z"/>
<path d="M1161 2754 c-30 -38 -9 -84 40 -84 39 0 66 39 48 72 -24 46 -58 51
-88 12z m77 -31 c-4 -34 -32 -52 -55 -37 -27 17 -28 50 -2 68 31 21 61 4 57
-31z"/>
<path d="M1402 2764 c-41 -29 -19 -94 33 -94 51 0 71 54 35 90 -24 24 -38 25
-68 4z m74 -29 c9 -23 -15 -55 -42 -55 -17 0 -28 8 -36 26 -11 23 -10 29 11
45 18 15 27 16 42 8 11 -6 22 -16 25 -24z"/>
<path d="M1644 2772 c-6 -4 -16 -17 -23 -30 -25 -48 48 -99 87 -60 39 39 -19
120 -64 90z m61 -52 c0 -13 -8 -28 -17 -34 -40 -25 -80 43 -42 71 24 17 59 -5
59 -37z"/>
<path d="M1872 2764 c-24 -17 -30 -62 -10 -82 21 -21 66 -14 83 12 24 36 -2
86 -44 86 -3 0 -17 -7 -29 -16z m68 -37 c0 -49 -53 -64 -72 -21 -11 23 -10 29
11 45 28 23 61 10 61 -24z"/>
<path d="M2100 2760 c-36 -36 -16 -90 35 -90 52 0 74 65 33 94 -30 21 -44 20
-68 -4z m76 -25 c9 -23 -15 -55 -42 -55 -17 0 -28 8 -36 26 -11 23 -10 29 11
45 18 15 27 16 42 8 11 -6 22 -16 25 -24z"/>
<path d="M3036 2765 c-19 -19 -21 -66 -4 -83 21 -21 66 -14 84 14 16 24 16 27
-3 52 -24 32 -55 39 -77 17z m71 -24 c9 -15 8 -23 -3 -40 -29 -41 -82 -15 -70
33 9 38 51 42 73 7z"/>
<path d="M3272 2764 c-24 -16 -28 -44 -12 -75 15 -27 64 -25 84 3 21 30 20 44
-4 68 -24 24 -38 25 -68 4z m66 -47 c-2 -25 -8 -33 -27 -35 -15 -3 -30 3 -38
14 -17 24 -17 30 7 54 30 30 62 11 58 -33z"/>
<path d="M3500 2760 c-24 -24 -25 -38 -4 -68 17 -24 62 -30 82 -10 20 20 14
65 -10 82 -30 21 -44 20 -68 -4z m78 -34 c8 -40 -42 -60 -72 -30 -21 20 -20
30 5 55 18 18 23 19 42 6 12 -8 23 -22 25 -31z"/>
<path d="M3742 2764 c-24 -17 -30 -62 -10 -82 20 -20 65 -14 82 10 21 29 20
40 -4 66 -25 26 -38 27 -68 6z m65 -23 c9 -15 8 -23 -3 -40 -29 -41 -82 -15
-70 33 9 38 51 42 73 7z"/>
<path d="M3972 2764 c-41 -29 -19 -94 33 -94 51 0 71 54 35 90 -24 24 -38 25
-68 4z m66 -47 c-2 -25 -8 -33 -27 -35 -15 -3 -30 3 -38 14 -17 24 -17 30 7
54 30 30 62 11 58 -33z"/>
<path d="M4200 2760 c-24 -24 -25 -38 -4 -68 17 -24 62 -30 82 -10 20 20 14
65 -10 82 -30 21 -44 20 -68 -4z m78 -37 c4 -24 -20 -46 -44 -41 -9 2 -23 13
-31 25 -13 19 -12 24 7 43 19 19 24 20 43 7 12 -8 23 -23 25 -34z"/>
<path d="M4442 2764 c-24 -16 -28 -44 -12 -75 15 -27 64 -25 84 3 21 30 20 44
-4 68 -24 24 -38 25 -68 4z m69 -26 c8 -15 7 -24 -7 -39 -33 -37 -82 -13 -70
35 10 39 57 42 77 4z"/>
<path d="M4670 2760 c-24 -24 -26 -53 -4 -74 32 -33 94 -10 94 35 0 23 -34 59
-55 59 -8 0 -24 -9 -35 -20z m69 -19 c5 -9 5 -26 0 -39 -12 -31 -58 -27 -70 6
-17 46 47 77 70 33z"/>
<path d="M4912 2773 c-7 -3 -18 -16 -23 -30 -13 -36 12 -73 49 -73 35 0 52 17
52 51 0 40 -41 67 -78 52z m64 -39 c7 -28 -10 -54 -35 -54 -24 0 -41 20 -41
47 0 45 65 51 76 7z"/>
<path d="M5142 2764 c-24 -16 -28 -44 -12 -75 21 -39 100 -12 100 34 0 20 -34
57 -53 57 -7 0 -23 -7 -35 -16z m69 -26 c8 -15 7 -24 -7 -39 -24 -27 -52 -24
-66 7 -11 23 -10 29 10 45 26 20 48 16 63 -13z"/>
<path d="M7712 2764 c-24 -17 -30 -62 -10 -82 21 -21 66 -14 83 12 24 36 -2
86 -44 86 -3 0 -17 -7 -29 -16z m68 -44 c0 -23 -5 -31 -25 -36 -50 -12 -75 41
-33 70 30 21 58 4 58 -34z"/>
<path d="M7939 2759 c-22 -22 -20 -66 4 -81 58 -37 120 47 65 86 -30 21 -44
20 -69 -5z m77 -24 c10 -26 -15 -56 -44 -53 -22 2 -28 9 -30 33 -5 37 21 59
50 44 10 -6 21 -16 24 -24z"/>
<path d="M8184 2773 c-6 -5 -16 -18 -23 -31 -31 -58 59 -101 95 -46 16 24 16
27 -3 52 -21 28 -49 38 -69 25z m62 -38 c7 -29 -10 -55 -36 -55 -26 0 -43 26
-36 55 5 20 13 25 36 25 23 0 31 -5 36 -25z"/>
<path d="M8412 2764 c-24 -17 -30 -62 -10 -82 13 -13 57 -16 75 -4 24 15 26
59 4 81 -25 25 -39 26 -69 5z m71 -26 c7 -24 -5 -48 -29 -54 -49 -12 -73 41
-32 70 22 16 52 8 61 -16z"/>
<path d="M8652 2773 c-7 -3 -18 -16 -23 -30 -13 -36 12 -73 49 -73 35 0 52 17
52 51 0 40 -41 67 -78 52z m66 -50 c4 -27 -22 -47 -53 -39 -20 5 -25 13 -25
36 0 37 27 54 55 36 11 -7 21 -22 23 -33z"/>
<path d="M8871 2754 c-25 -32 -25 -33 -5 -62 36 -51 122 -5 93 50 -24 46 -58
50 -88 12z m75 -19 c7 -29 -10 -55 -36 -55 -26 0 -43 26 -36 55 5 20 13 25 36
25 23 0 31 -5 36 -25z"/>
<path d="M9112 2764 c-41 -29 -19 -94 33 -94 51 0 71 54 35 90 -24 24 -38 25
-68 4z m69 -25 c14 -26 -5 -59 -34 -59 -47 0 -63 48 -26 74 25 17 45 12 60
-15z"/>
<path d="M9346 2767 c-21 -16 -24 -60 -6 -82 15 -18 61 -20 78 -3 20 20 14 65
-10 82 -27 19 -39 20 -62 3z m69 -47 c0 -13 -8 -28 -17 -34 -40 -25 -80 43
-42 71 24 17 59 -5 59 -37z"/>
<path d="M5400 2255 l0 -475 1058 2 1057 3 2 473 2 472 -1059 0 -1060 0 0
-475z m2100 0 l0 -465 -1042 2 -1043 3 -3 440 c-1 242 0 450 3 463 l5 22 1040
0 1040 0 0 -465z"/>
<path d="M2524 2665 c-14 -22 -15 -30 -4 -50 18 -33 45 -40 75 -21 27 18 34
63 13 84 -21 21 -66 14 -84 -13z m74 3 c18 -18 15 -42 -7 -62 -27 -25 -61 -6
-61 34 0 37 41 55 68 28z"/>
<path d="M9946 2674 c-22 -21 -20 -50 4 -74 24 -24 38 -25 68 -4 41 29 19 94
-33 94 -13 0 -31 -7 -39 -16z m65 -4 c25 -14 24 -45 -3 -64 -19 -13 -25 -14
-43 -2 -26 18 -30 40 -10 60 19 19 29 20 56 6z"/>
<path d="M924 2515 c-13 -21 -15 -31 -6 -50 25 -55 102 -35 102 26 0 51 -68
67 -96 24z m78 -10 c10 -22 9 -29 -9 -46 -28 -28 -63 -11 -63 31 0 45 53 56
72 15z"/>
<path d="M1162 2528 c-18 -18 -15 -63 8 -83 42 -38 102 14 76 66 -13 27 -63
38 -84 17z m68 -13 c15 -19 6 -61 -16 -69 -20 -8 -54 20 -54 44 0 36 46 53 70
25z"/>
<path d="M1396 2524 c-23 -22 -20 -60 6 -78 30 -21 44 -20 68 4 36 36 16 90
-35 90 -13 0 -31 -7 -39 -16z m68 -10 c22 -21 20 -40 -6 -58 -19 -13 -25 -14
-43 -2 -26 18 -30 40 -10 60 21 20 39 20 59 0z"/>
<path d="M1625 2516 c-33 -50 31 -110 75 -71 22 20 26 65 8 83 -21 21 -66 14
-83 -12z m73 2 c18 -18 15 -42 -7 -62 -15 -14 -24 -15 -40 -6 -36 19 -22 80
19 80 9 0 21 -5 28 -12z"/>
<path d="M1862 2528 c-18 -18 -14 -63 8 -83 44 -39 108 21 75 71 -17 26 -62
33 -83 12z m66 -10 c36 -36 -11 -96 -49 -62 -31 28 -18 74 21 74 9 0 21 -5 28
-12z"/>
<path d="M2096 2524 c-22 -21 -20 -50 4 -74 24 -24 38 -25 68 -4 41 29 19 94
-33 94 -13 0 -31 -7 -39 -16z m65 -4 c25 -14 24 -42 -1 -65 -18 -17 -21 -17
-45 -1 -29 19 -32 38 -9 60 18 19 28 20 55 6z"/>
<path d="M3032 2528 c-17 -17 -15 -64 4 -83 22 -22 53 -15 77 17 19 25 19 28
3 52 -18 28 -63 35 -84 14z m66 -10 c18 -18 15 -43 -8 -63 -19 -17 -21 -17
-40 0 -32 29 -20 75 20 75 9 0 21 -5 28 -12z"/>
<path d="M3268 2529 c-28 -16 -23 -65 7 -85 51 -33 104 21 71 71 -17 26 -48
32 -78 14z m56 -5 c23 -9 21 -61 -3 -74 -27 -14 -28 -13 -46 14 -27 41 3 78
49 60z"/>
<path d="M3495 2520 c-23 -25 -13 -67 20 -82 35 -16 75 12 75 52 0 48 -61 68
-95 30z m73 -2 c18 -18 15 -42 -7 -62 -15 -14 -24 -15 -40 -6 -12 6 -21 12
-21 15 0 2 -3 10 -6 18 -12 32 48 61 74 35z"/>
<path d="M3732 2528 c-18 -18 -15 -62 6 -81 26 -24 45 -21 73 9 22 23 23 27 8
52 -16 30 -65 42 -87 20z m72 -20 c15 -21 14 -24 -9 -47 -24 -24 -25 -24 -45
-6 -23 20 -26 45 -8 63 19 19 45 14 62 -10z"/>
<path d="M3966 2524 c-23 -22 -20 -60 6 -78 30 -21 44 -20 68 4 36 36 16 90
-35 90 -13 0 -31 -7 -39 -16z m58 0 c25 -9 20 -61 -6 -75 -18 -10 -24 -8 -40
11 -22 27 -22 34 -2 54 17 18 24 19 48 10z"/>
<path d="M4194 2515 c-33 -50 20 -104 71 -71 27 18 34 63 13 84 -21 21 -66 14
-84 -13z m74 3 c18 -18 15 -42 -7 -62 -27 -25 -61 -6 -61 34 0 37 41 55 68 28z"/>
<path d="M4432 2528 c-19 -19 -14 -63 8 -83 46 -41 116 29 75 75 -20 22 -64
27 -83 8z m72 -17 c19 -21 13 -47 -16 -62 -37 -20 -76 39 -46 69 17 17 42 15
62 -7z"/>
<path d="M4666 2524 c-23 -22 -20 -60 6 -78 30 -21 44 -20 68 4 36 36 16 90
-35 90 -13 0 -31 -7 -39 -16z m60 -2 c38 -26 4 -94 -36 -72 -23 12 -28 65 -7
73 18 8 31 8 43 -1z"/>
<path d="M4895 2516 c-34 -51 30 -111 75 -71 22 20 26 65 8 83 -21 21 -66 14
-83 -12z m73 2 c18 -18 15 -42 -7 -62 -16 -15 -22 -15 -40 -4 -35 22 -22 78
19 78 9 0 21 -5 28 -12z"/>
<path d="M5136 2524 c-41 -40 7 -109 59 -86 14 6 27 23 31 37 13 50 -53 86
-90 49z m68 -13 c19 -21 13 -47 -16 -62 -16 -9 -25 -7 -41 10 -18 17 -19 24
-9 46 14 30 42 33 66 6z"/>
<path d="M7708 2529 c-27 -15 -23 -65 7 -85 31 -20 63 -10 76 23 19 51 -34 91
-83 62z m56 -5 c24 -9 21 -61 -5 -74 -16 -9 -25 -8 -40 6 -42 38 -8 88 45 68z"/>
<path d="M7944 2532 c-18 -12 -26 -50 -15 -71 26 -48 101 -27 101 29 0 40 -51
65 -86 42z m57 -12 c24 -14 24 -42 0 -64 -27 -25 -61 -6 -61 34 0 37 24 49 61
30z"/>
<path d="M8166 2518 c-21 -30 -20 -41 7 -66 30 -29 51 -28 76 4 19 25 19 45
-2 72 -16 20 -64 14 -81 -10z m72 0 c18 -18 15 -43 -8 -63 -19 -17 -21 -17
-40 0 -32 29 -20 75 20 75 9 0 21 -5 28 -12z"/>
<path d="M8408 2529 c-28 -16 -23 -65 7 -85 51 -33 104 21 71 71 -17 26 -48
32 -78 14z m56 -5 c24 -9 21 -61 -5 -74 -16 -9 -25 -8 -40 6 -42 38 -8 88 45
68z"/>
<path d="M8634 2515 c-20 -30 -11 -62 21 -77 35 -16 75 12 75 52 0 51 -67 69
-96 25z m74 3 c18 -18 15 -42 -7 -62 -27 -25 -61 -6 -61 34 0 37 41 55 68 28z"/>
<path d="M8864 2514 c-16 -24 -16 -27 3 -52 12 -16 30 -27 43 -27 13 0 31 11
43 27 19 25 19 28 3 52 -11 18 -25 26 -46 26 -21 0 -35 -8 -46 -26z m74 4 c18
-18 15 -43 -8 -63 -19 -17 -21 -17 -40 0 -32 29 -20 75 20 75 9 0 21 -5 28
-12z"/>
<path d="M9106 2524 c-23 -22 -20 -60 6 -78 30 -21 44 -20 68 4 36 36 16 90
-35 90 -13 0 -31 -7 -39 -16z m68 -10 c9 -8 16 -17 16 -19 0 -15 -16 -37 -32
-46 -40 -21 -80 47 -40 70 24 15 38 13 56 -5z"/>
<path d="M9340 2525 c-30 -36 -4 -95 40 -95 44 0 68 80 31 100 -28 14 -57 12
-71 -5z m68 -7 c18 -18 15 -42 -7 -62 -27 -25 -61 -6 -61 34 0 37 41 55 68 28z"/>
<path d="M923 2284 c-15 -24 -15 -29 -2 -53 17 -31 43 -38 75 -20 46 24 20 99
-34 99 -12 0 -29 -11 -39 -26z m77 -9 c14 -17 5 -51 -16 -59 -35 -13 -73 41
-47 67 12 12 50 7 63 -8z"/>
<path d="M1167 2292 c-43 -47 1 -110 58 -84 48 22 29 102 -25 102 -9 0 -24 -8
-33 -18z m71 -34 c5 -45 -57 -62 -72 -21 -13 32 4 54 37 51 26 -2 33 -8 35
-30z"/>
<path d="M1397 2292 c-33 -36 -8 -92 40 -92 25 0 53 30 53 57 0 46 -62 69 -93
35z m77 -25 c9 -15 7 -22 -11 -37 -27 -21 -60 -16 -68 12 -14 43 54 65 79 25z"/>
<path d="M1638 2298 c-31 -24 -27 -74 7 -90 38 -17 75 3 75 40 0 49 -47 77
-82 50z m62 -23 c14 -17 5 -51 -16 -59 -35 -13 -73 41 -47 67 12 12 50 7 63
-8z"/>
<path d="M1867 2292 c-24 -26 -22 -69 4 -82 52 -29 107 26 75 75 -20 30 -56
33 -79 7z m71 -34 c6 -47 -59 -62 -73 -17 -9 27 13 51 44 47 20 -2 27 -9 29
-30z"/>
<path d="M2097 2292 c-33 -36 -8 -92 40 -92 25 0 53 30 53 57 0 46 -62 69 -93
35z m73 -17 c15 -19 4 -52 -20 -58 -21 -5 -60 18 -60 37 0 33 57 49 80 21z"/>
<path d="M3036 2294 c-35 -35 -11 -94 38 -94 20 0 56 35 56 55 0 21 -36 55
-59 55 -11 0 -27 -7 -35 -16z m72 -36 c2 -19 -3 -30 -17 -38 -28 -15 -61 3
-61 34 0 31 9 37 45 34 24 -2 31 -8 33 -30z"/>
<path d="M3267 2292 c-22 -25 -21 -55 2 -76 26 -24 62 -17 80 15 13 24 13 29
-2 53 -21 31 -56 34 -80 8z m71 -34 c4 -36 -26 -53 -56 -32 -38 26 -19 67 28
62 19 -2 26 -10 28 -30z"/>
<path d="M3496 2288 c-21 -30 -20 -44 4 -68 36 -36 90 -16 90 34 0 51 -66 74
-94 34z m79 -32 c0 -40 -37 -54 -65 -26 -30 30 -11 62 33 58 28 -3 32 -7 32
-32z"/>
<path d="M3736 2294 c-33 -32 -10 -94 35 -94 23 0 59 34 59 55 0 21 -36 55
-59 55 -11 0 -27 -7 -35 -16z m74 -24 c8 -15 6 -24 -10 -40 -24 -24 -30 -24
-55 -7 -13 10 -16 21 -11 40 5 22 12 27 36 27 19 0 33 -7 40 -20z"/>
<path d="M3967 2292 c-22 -24 -21 -55 1 -75 26 -23 58 -21 76 5 21 29 20 51
-2 71 -24 22 -55 21 -75 -1z m71 -34 c5 -39 -30 -56 -58 -28 -28 28 -11 63 28
58 21 -2 28 -9 30 -30z"/>
<path d="M4200 2290 c-11 -11 -20 -27 -20 -35 0 -20 36 -55 56 -55 51 0 73 59
36 93 -25 22 -48 21 -72 -3z m78 -32 c2 -19 -3 -30 -17 -38 -28 -15 -61 3 -61
34 0 31 9 37 45 34 24 -2 31 -8 33 -30z"/>
<path d="M4436 2294 c-33 -32 -10 -94 35 -94 23 0 59 34 59 55 0 21 -36 55
-59 55 -11 0 -27 -7 -35 -16z m74 -24 c8 -15 6 -24 -9 -39 -34 -34 -80 -5 -66
40 9 26 61 26 75 -1z"/>
<path d="M4667 2292 c-33 -36 -8 -92 40 -92 25 0 53 30 53 57 0 46 -62 69 -93
35z m73 -22 c15 -28 -22 -65 -50 -50 -19 10 -27 49 -13 63 14 14 53 6 63 -13z"/>
<path d="M4908 2298 c-31 -24 -27 -74 7 -90 41 -18 75 3 75 46 0 49 -45 72
-82 44z m70 -40 c2 -19 -3 -30 -17 -38 -28 -15 -61 3 -61 34 0 31 9 37 45 34
24 -2 31 -8 33 -30z"/>
<path d="M5137 2292 c-33 -37 -11 -92 37 -92 25 0 56 28 56 51 0 26 -30 59
-54 59 -13 0 -30 -8 -39 -18z m77 -25 c9 -15 7 -22 -11 -37 -39 -31 -82 -4
-67 42 7 25 62 21 78 -5z"/>
<path d="M7707 2292 c-35 -38 -13 -92 37 -92 20 0 56 35 56 55 0 21 -36 55
-58 55 -11 0 -26 -8 -35 -18z m71 -34 c2 -19 -3 -30 -17 -38 -29 -15 -61 3
-61 35 0 26 13 35 50 32 19 -2 26 -8 28 -29z"/>
<path d="M7933 2284 c-15 -24 -15 -29 -2 -53 18 -32 54 -39 80 -15 24 22 24
56 1 77 -27 25 -59 21 -79 -9z m81 -17 c16 -26 -27 -62 -55 -47 -19 10 -26 50
-12 64 13 12 56 2 67 -17z"/>
<path d="M8170 2290 c-11 -11 -20 -27 -20 -35 0 -21 36 -55 58 -55 49 0 72 59
36 94 -21 22 -50 20 -74 -4z m74 -16 c16 -42 -16 -74 -54 -54 -19 10 -27 49
-13 63 13 13 61 7 67 -9z"/>
<path d="M8407 2292 c-23 -25 -21 -55 3 -77 25 -23 67 -13 82 20 24 53 -46
100 -85 57z m71 -34 c2 -19 -3 -30 -17 -38 -29 -15 -61 3 -61 35 0 26 13 35
50 32 19 -2 26 -8 28 -29z"/>
<path d="M8634 2285 c-21 -33 -6 -72 31 -81 52 -13 86 53 47 89 -27 24 -59 21
-78 -8z m76 -10 c14 -17 5 -51 -16 -59 -35 -13 -73 41 -47 67 12 12 50 7 63
-8z"/>
<path d="M8876 2294 c-36 -35 -13 -94 36 -94 22 0 58 34 58 55 0 21 -36 55
-59 55 -11 0 -27 -7 -35 -16z m72 -36 c4 -34 -27 -54 -58 -38 -21 11 -25 27
-14 55 5 11 16 15 38 13 25 -2 32 -8 34 -30z"/>
<path d="M9107 2292 c-22 -25 -21 -55 2 -76 26 -24 62 -17 80 15 13 24 13 29
-2 53 -21 31 -56 34 -80 8z m73 -22 c15 -29 -22 -65 -51 -50 -27 15 -34 37
-19 55 18 21 57 19 70 -5z"/>
<path d="M9348 2298 c-31 -24 -27 -74 7 -90 38 -17 75 3 75 40 0 49 -47 77
-82 50z m60 -20 c32 -32 -8 -80 -48 -58 -19 10 -27 49 -13 63 11 11 48 8 61
-5z"/>
<path d="M949 2073 c-9 -2 -21 -16 -28 -30 -16 -35 8 -73 47 -73 35 0 52 17
52 51 0 24 -32 62 -50 58 -3 -1 -12 -3 -21 -6z m55 -35 c16 -26 -4 -53 -40
-53 -23 0 -30 5 -32 23 -2 13 -1 30 2 38 8 20 56 14 70 -8z"/>
<path d="M1172 2065 c-24 -18 -30 -63 -10 -83 21 -21 66 -14 83 12 13 19 14
28 4 50 -7 14 -16 26 -20 26 -4 0 -13 2 -21 5 -7 3 -23 -2 -36 -10z m63 -25
c10 -32 -4 -60 -29 -60 -26 0 -46 17 -46 40 0 40 63 57 75 20z"/>
<path d="M1412 2069 c-26 -10 -38 -50 -22 -78 17 -32 77 -29 92 4 22 49 -19
93 -70 74z m58 -24 c10 -12 10 -21 2 -40 -19 -40 -82 -29 -82 15 0 37 55 55
80 25z"/>
<path d="M1649 2073 c-9 -2 -21 -16 -28 -30 -16 -35 8 -73 47 -73 35 0 52 17
52 51 0 24 -32 62 -50 58 -3 -1 -12 -3 -21 -6z m55 -35 c15 -24 -3 -52 -37
-56 -28 -4 -43 23 -32 59 8 25 52 23 69 -3z"/>
<path d="M1872 2065 c-24 -18 -30 -63 -10 -83 21 -21 66 -14 83 12 13 19 14
28 4 50 -7 14 -16 26 -20 26 -4 0 -13 2 -21 5 -7 3 -23 -2 -36 -10z m63 -25
c10 -32 -4 -60 -29 -60 -26 0 -46 17 -46 40 0 40 63 57 75 20z"/>
<path d="M2113 2070 c-27 -11 -39 -51 -23 -79 15 -28 75 -29 90 -2 16 31 12
59 -12 75 -25 18 -25 18 -55 6z m61 -32 c15 -24 -3 -52 -37 -56 -33 -4 -53 28
-37 59 14 25 58 23 74 -3z"/>
<path d="M3042 2064 c-24 -17 -30 -62 -10 -82 37 -37 113 12 88 57 -9 17 -39
41 -52 41 -2 0 -14 -7 -26 -16z m62 -26 c23 -37 -36 -77 -63 -44 -8 10 -11 26
-7 42 5 20 12 25 33 22 14 -2 31 -11 37 -20z"/>
<path d="M3272 2064 c-24 -17 -30 -62 -10 -82 7 -7 27 -12 45 -12 65 0 72 85
8 104 -12 3 -30 -1 -43 -10z m63 -44 c0 -31 -3 -35 -27 -38 -34 -4 -54 27 -38
59 8 14 19 19 38 17 24 -3 27 -7 27 -38z"/>
<path d="M3520 2073 c-21 -7 -40 -33 -40 -54 0 -40 69 -66 98 -37 20 20 14 65
-10 82 -24 17 -25 17 -48 9z m54 -35 c15 -24 -3 -52 -37 -56 -33 -4 -53 28
-37 59 14 25 58 23 74 -3z"/>
<path d="M3742 2064 c-25 -18 -30 -65 -8 -83 25 -21 69 -9 86 22 14 27 14 29
-13 53 -33 28 -36 29 -65 8z m66 -25 c11 -18 11 -24 -4 -40 -28 -31 -74 -18
-74 21 0 41 56 54 78 19z"/>
<path d="M3972 2064 c-43 -30 -21 -94 33 -94 67 0 75 85 10 104 -12 3 -30 -1
-43 -10z m63 -44 c0 -31 -3 -35 -27 -38 -34 -4 -54 27 -38 59 8 14 19 19 38
17 24 -3 27 -7 27 -38z"/>
<path d="M4213 2070 c-13 -5 -24 -17 -25 -27 -3 -34 3 -57 15 -65 18 -12 62
-9 75 4 20 20 14 65 -10 82 -25 18 -25 18 -55 6z m55 -22 c30 -30 0 -75 -43
-64 -19 5 -25 13 -25 35 0 15 3 31 7 34 11 11 48 8 61 -5z"/>
<path d="M4442 2064 c-24 -17 -30 -62 -10 -82 29 -29 98 -1 98 41 0 14 -44 57
-59 57 -4 0 -17 -7 -29 -16z m66 -25 c11 -18 11 -24 -4 -40 -28 -31 -74 -18
-74 21 0 41 56 54 78 19z"/>
<path d="M4682 2069 c-26 -10 -38 -50 -22 -78 17 -32 77 -29 92 4 22 49 -19
93 -70 74z m58 -29 c15 -28 -4 -60 -36 -60 -29 0 -47 35 -32 63 12 23 55 22
68 -3z"/>
<path d="M4918 2069 c-10 -5 -23 -19 -29 -30 -24 -45 52 -94 89 -57 20 20 14
65 -10 82 -26 19 -27 19 -50 5z m56 -31 c22 -35 -27 -74 -59 -48 -18 15 -20
56 -2 64 22 9 50 1 61 -16z"/>
<path d="M5142 2064 c-24 -16 -28 -44 -12 -75 13 -23 62 -26 84 -3 45 45 -20
115 -72 78z m68 -24 c8 -14 8 -26 0 -40 -19 -35 -80 -20 -80 20 0 40 61 55 80
20z"/>
<path d="M7712 2064 c-24 -17 -30 -62 -10 -82 14 -14 57 -16 77 -3 16 10 19
67 5 80 -19 18 -50 20 -72 5z m63 -44 c0 -29 -4 -36 -23 -38 -43 -6 -69 37
-40 66 7 7 24 12 38 10 21 -3 25 -8 25 -38z"/>
<path d="M7953 2070 c-27 -11 -36 -40 -24 -74 9 -21 17 -26 44 -26 18 0 38 5
45 12 20 20 14 65 -10 82 -25 18 -25 18 -55 6z m61 -32 c16 -26 -4 -53 -40
-53 -23 0 -30 5 -32 23 -2 13 -1 30 2 38 8 20 56 14 70 -8z"/>
<path d="M8188 2069 c-52 -30 -37 -99 22 -99 60 0 74 71 20 100 -22 12 -21 12
-42 -1z m52 -24 c26 -32 -13 -81 -47 -59 -35 22 -23 74 17 74 10 0 23 -7 30
-15z"/>
<path d="M8412 2064 c-24 -17 -30 -62 -10 -82 13 -13 57 -16 75 -4 6 4 14 18
18 32 12 47 -42 83 -83 54z m66 -21 c6 -10 6 -28 1 -40 -14 -39 -79 -25 -79
17 0 38 61 56 78 23z"/>
<path d="M8653 2070 c-13 -5 -24 -17 -25 -27 -3 -34 3 -57 15 -65 18 -12 62
-9 75 4 20 20 14 65 -10 82 -25 18 -25 18 -55 6z m61 -32 c16 -26 -4 -53 -40
-53 -23 0 -30 5 -32 23 -2 13 -1 30 2 38 8 20 56 14 70 -8z"/>
<path d="M8888 2069 c-52 -30 -37 -99 22 -99 60 0 74 71 20 100 -22 12 -21 12
-42 -1z m58 -34 c11 -43 -34 -73 -64 -43 -27 27 -6 68 35 68 16 0 24 -7 29
-25z"/>
<path d="M9112 2064 c-24 -17 -30 -62 -10 -82 7 -7 27 -12 45 -12 65 0 72 85
8 104 -12 3 -30 -1 -43 -10z m68 -24 c8 -14 8 -26 0 -40 -19 -35 -80 -20 -80
20 0 40 61 55 80 20z"/>
<path d="M9357 2073 c-29 -7 -41 -51 -22 -79 17 -26 62 -33 83 -12 20 20 14
65 -10 82 -12 9 -25 15 -28 15 -3 -1 -13 -3 -23 -6z m57 -35 c16 -26 -4 -53
-40 -53 -23 0 -30 5 -32 23 -2 13 -1 30 2 38 8 20 56 14 70 -8z"/>
<path d="M924 1815 c-13 -21 -15 -31 -6 -50 25 -55 102 -35 102 26 0 51 -68
67 -96 24z m70 -1 c21 -21 20 -37 -5 -60 -24 -22 -52 -10 -57 25 -7 43 32 65
62 35z"/>
<path d="M1168 1829 c-24 -14 -23 -62 2 -84 42 -38 102 14 76 66 -13 26 -50
35 -78 18z m60 -11 c36 -36 -11 -96 -49 -62 -31 28 -18 74 21 74 9 0 21 -5 28
-12z"/>
<path d="M1396 1824 c-21 -21 -20 -57 2 -77 24 -22 55 -21 75 1 34 37 11 92
-38 92 -13 0 -31 -7 -39 -16z m68 -10 c9 -8 16 -20 16 -26 0 -15 -30 -48 -43
-48 -15 0 -47 31 -47 46 0 17 28 44 45 44 7 0 21 -7 29 -16z"/>
<path d="M1630 1825 c-30 -36 -4 -95 40 -95 44 0 68 80 31 100 -28 14 -57 12
-71 -5z m64 -11 c21 -21 20 -37 -3 -58 -38 -34 -85 26 -49 62 16 16 33 15 52
-4z"/>
<path d="M1868 1829 c-24 -14 -23 -61 2 -84 45 -41 110 18 76 70 -17 26 -48
32 -78 14z m62 -13 c15 -20 9 -56 -12 -70 -13 -8 -22 -6 -37 8 -25 23 -26 39
-5 60 19 20 38 20 54 2z"/>
<path d="M2097 1822 c-22 -24 -21 -55 1 -75 36 -33 92 -8 92 41 0 47 -61 69
-93 34z m67 -8 c9 -8 16 -20 16 -26 0 -15 -30 -48 -43 -48 -15 0 -47 31 -47
46 0 17 28 44 45 44 7 0 21 -7 29 -16z"/>
<path d="M3038 1829 c-22 -13 -24 -62 -2 -83 22 -22 50 -20 74 6 25 27 25 43
0 68 -22 22 -46 25 -72 9z m62 -14 c26 -31 -8 -83 -45 -69 -37 15 -25 84 15
84 10 0 23 -7 30 -15z"/>
<path d="M3266 1824 c-22 -21 -20 -57 3 -78 26 -24 62 -17 80 15 13 24 13 29
-2 53 -20 30 -57 35 -81 10z m64 -8 c15 -20 9 -56 -12 -70 -13 -8 -22 -6 -37
8 -25 23 -26 39 -5 60 19 20 38 20 54 2z"/>
<path d="M3494 1815 c-13 -21 -15 -31 -6 -50 25 -55 102 -35 102 26 0 51 -68
67 -96 24z m67 5 c25 -14 24 -42 -1 -65 -36 -33 -83 13 -54 53 17 25 27 27 55
12z"/>
<path d="M3738 1829 c-38 -22 -12 -99 33 -99 21 0 59 33 59 53 0 43 -53 69
-92 46z m69 -25 c12 -19 11 -24 -5 -44 -13 -17 -24 -21 -40 -16 -31 10 -41 55
-16 73 24 17 43 13 61 -13z"/>
<path d="M3966 1824 c-34 -33 -7 -94 42 -94 22 0 52 34 52 61 0 41 -64 63 -94
33z m62 -3 c19 -11 11 -62 -11 -75 -15 -9 -22 -7 -37 12 -33 40 5 91 48 63z"/>
<path d="M4196 1818 c-21 -30 -20 -44 4 -68 38 -38 90 -15 90 40 0 50 -66 69
-94 28z m65 2 c25 -14 24 -42 -2 -66 -15 -14 -24 -16 -37 -8 -21 14 -27 50
-12 70 15 17 25 18 51 4z"/>
<path d="M4436 1824 c-33 -32 -10 -94 35 -94 21 0 59 33 59 53 0 46 -62 73
-94 41z m69 -14 c17 -18 17 -21 1 -45 -19 -29 -33 -31 -58 -8 -22 20 -23 37
-2 57 21 21 37 20 59 -4z"/>
<path d="M4667 1822 c-22 -24 -21 -55 1 -75 26 -23 58 -21 76 5 21 29 20 51
-2 71 -24 22 -55 21 -75 -1z m59 0 c21 -14 23 -41 5 -63 -32 -40 -85 7 -55 49
16 23 31 27 50 14z"/>
<path d="M4899 1819 c-22 -22 -19 -55 9 -76 37 -29 82 -3 82 47 0 49 -54 66
-91 29z m62 1 c25 -14 25 -56 -1 -70 -42 -22 -82 34 -48 68 15 15 24 15 49 2z"/>
<path d="M5136 1824 c-22 -21 -20 -57 4 -79 46 -41 116 29 75 75 -22 24 -58
26 -79 4z m70 -15 c13 -15 16 -24 8 -36 -20 -32 -41 -38 -63 -19 -25 23 -26
39 -5 60 21 21 37 20 60 -5z"/>
<path d="M7708 1829 c-24 -14 -23 -61 2 -84 45 -41 110 18 76 70 -17 26 -48
32 -78 14z m60 -8 c18 -11 11 -61 -10 -75 -20 -12 -58 17 -58 45 0 29 41 47
68 30z"/>
<path d="M7933 1814 c-15 -24 -15 -29 -2 -53 18 -32 54 -39 80 -15 37 34 14
94 -36 94 -15 0 -31 -10 -42 -26z m71 0 c21 -21 20 -37 -5 -60 -26 -23 -53 -9
-57 31 -5 42 32 60 62 29z"/>
<path d="M8164 1815 c-14 -22 -15 -30 -4 -50 32 -60 113 -31 101 35 -7 43 -72
53 -97 15z m76 0 c26 -31 -8 -83 -45 -69 -37 15 -25 84 15 84 10 0 23 -7 30
-15z"/>
<path d="M8406 1824 c-37 -37 -1 -103 49 -90 14 4 31 17 37 31 23 52 -46 100
-86 59z m60 -2 c19 -13 23 -39 8 -61 -18 -25 -31 -26 -56 -4 -23 20 -23 49 0
62 20 12 33 13 48 3z"/>
<path d="M8634 1815 c-13 -21 -15 -31 -6 -50 25 -55 102 -35 102 26 0 51 -68
67 -96 24z m70 -1 c21 -21 20 -37 -5 -60 -26 -23 -53 -9 -57 31 -5 42 32 60
62 29z"/>
<path d="M8878 1828 c-27 -22 -28 -46 -4 -74 27 -33 65 -28 86 10 26 50 -37
99 -82 64z m62 -13 c26 -31 -8 -83 -45 -69 -37 15 -25 84 15 84 10 0 23 -7 30
-15z"/>
<path d="M9106 1824 c-22 -21 -20 -57 3 -78 26 -24 62 -17 80 15 13 24 13 29
-2 53 -20 30 -57 35 -81 10z m60 -2 c19 -13 23 -39 8 -61 -18 -25 -31 -26 -56
-4 -23 20 -23 49 0 62 20 12 33 13 48 3z"/>
<path d="M9340 1825 c-30 -36 -4 -95 40 -95 44 0 68 80 31 100 -28 14 -57 12
-71 -5z m61 -5 c25 -14 24 -42 -2 -66 -15 -14 -24 -16 -37 -8 -21 14 -27 50
-12 70 15 17 25 18 51 4z"/>
<path d="M2525 1776 c-34 -51 30 -111 75 -71 26 23 26 71 1 85 -32 16 -59 12
-76 -14z m69 -2 c31 -30 8 -69 -36 -62 -26 3 -37 41 -18 64 16 18 35 18 54 -2z"/>
<path d="M9946 1784 c-22 -21 -20 -50 4 -74 24 -24 38 -25 68 -4 41 29 19 94
-33 94 -13 0 -31 -7 -39 -16z m65 -4 c36 -20 17 -70 -26 -70 -41 0 -58 36 -29
64 18 19 28 20 55 6z"/>
<path d="M942 1603 c-25 -10 -34 -53 -17 -79 28 -42 95 -25 95 25 0 44 -38 70
-78 54z m58 -28 c27 -32 -23 -82 -55 -55 -15 13 -20 51 -8 63 12 12 50 7 63
-8z"/>
<path d="M1167 1592 c-38 -42 -9 -98 46 -90 29 4 49 45 35 72 -21 40 -55 47
-81 18z m71 -34 c4 -34 -27 -54 -58 -38 -39 21 -16 73 30 68 19 -2 26 -10 28
-30z"/>
<path d="M1402 1594 c-41 -28 -19 -94 32 -94 28 0 56 29 56 58 0 20 -33 52
-55 52 -6 0 -21 -7 -33 -16z m68 -19 c25 -30 -11 -72 -51 -60 -43 14 -30 75
16 75 12 0 28 -7 35 -15z"/>
<path d="M1636 1597 c-36 -26 -16 -97 26 -97 54 0 79 58 40 93 -22 20 -42 21
-66 4z m62 -19 c32 -32 -18 -87 -53 -58 -15 13 -20 51 -8 63 11 11 48 8 61 -5z"/>
<path d="M1867 1592 c-23 -25 -22 -69 2 -82 32 -16 59 -12 76 14 36 55 -35
116 -78 68z m71 -33 c6 -49 -58 -65 -73 -18 -9 27 13 51 44 47 20 -2 27 -9 29
-29z"/>
<path d="M2102 1594 c-27 -18 -29 -55 -4 -77 37 -34 92 -11 92 38 0 23 -32 55
-55 55 -6 0 -21 -7 -33 -16z m68 -19 c25 -30 -11 -72 -51 -60 -43 14 -30 75
16 75 12 0 28 -7 35 -15z"/>
<path d="M3036 1595 c-19 -19 -21 -66 -4 -83 21 -21 66 -14 84 14 16 24 16 27
-3 52 -24 32 -55 39 -77 17z m62 -17 c32 -32 -8 -80 -48 -58 -21 11 -25 27
-14 54 7 19 45 21 62 4z"/>
<path d="M3267 1592 c-22 -24 -21 -55 1 -75 26 -23 58 -21 76 5 21 30 20 44
-4 68 -25 25 -52 26 -73 2z m71 -33 c6 -49 -58 -65 -73 -18 -9 27 13 51 44 47
20 -2 27 -9 29 -29z"/>
<path d="M3500 1590 c-24 -24 -25 -38 -4 -68 16 -24 44 -28 75 -12 39 21 12
100 -34 100 -9 0 -26 -9 -37 -20z m68 -12 c20 -20 14 -48 -14 -60 -23 -11 -29
-10 -45 11 -14 17 -16 27 -9 42 12 21 50 25 68 7z"/>
<path d="M3737 1592 c-20 -22 -22 -63 -5 -80 20 -20 65 -14 82 10 21 30 20 43
-6 68 -27 25 -50 26 -71 2z m72 -20 c11 -21 -11 -62 -33 -62 -28 0 -49 26 -42
53 5 22 12 27 36 27 18 0 33 -7 39 -18z"/>
<path d="M3967 1592 c-22 -24 -21 -55 1 -75 24 -22 55 -21 75 1 22 25 21 48
-3 72 -25 25 -52 26 -73 2z m71 -38 c3 -34 -16 -49 -48 -39 -44 14 -28 78 18
73 22 -2 28 -9 30 -34z"/>
<path d="M4200 1590 c-24 -24 -25 -38 -4 -68 16 -24 44 -28 75 -12 39 21 12
100 -34 100 -9 0 -26 -9 -37 -20z m64 -6 c9 -3 16 -17 16 -30 0 -31 -42 -53
-65 -34 -15 13 -20 51 -8 63 8 9 36 9 57 1z"/>
<path d="M4437 1592 c-34 -37 -11 -92 38 -92 24 0 55 33 55 57 0 19 -37 53
-58 53 -11 0 -26 -8 -35 -18z m74 -23 c9 -18 7 -25 -10 -42 -17 -18 -24 -19
-46 -9 -42 19 -27 72 22 72 12 0 27 -9 34 -21z"/>
<path d="M4672 1594 c-40 -28 -16 -94 35 -94 25 0 53 30 53 58 0 20 -33 52
-55 52 -6 0 -21 -7 -33 -16z m66 -20 c21 -38 -21 -80 -53 -54 -15 13 -20 51
-8 63 12 13 52 7 61 -9z"/>
<path d="M4909 1597 c-25 -20 -31 -48 -14 -73 28 -42 95 -24 95 25 0 48 -46
75 -81 48z m55 -13 c23 -9 20 -51 -4 -64 -27 -15 -60 4 -60 34 0 12 3 26 7 29
8 9 36 9 57 1z"/>
<path d="M5137 1592 c-33 -37 -11 -92 37 -92 26 0 56 29 56 53 0 23 -35 57
-58 57 -11 0 -26 -8 -35 -18z m74 -23 c9 -18 7 -25 -9 -41 -23 -24 -58 -17
-67 13 -14 44 53 69 76 28z"/>
<path d="M5372 1594 c-41 -28 -16 -94 36 -94 47 0 69 61 34 93 -23 21 -41 21
-70 1z m68 -23 c5 -11 7 -26 4 -35 -8 -21 -42 -30 -59 -16 -15 13 -20 51 -8
63 13 14 53 6 63 -12z"/>
<path d="M5608 1596 c-21 -15 -24 -66 -6 -84 7 -7 24 -12 38 -12 14 0 31 5 38
12 18 18 14 63 -6 81 -22 20 -41 21 -64 3z m70 -38 c2 -19 -3 -30 -17 -38 -28
-15 -61 3 -61 34 0 31 9 37 45 34 24 -2 31 -8 33 -30z"/>
<path d="M5837 1592 c-33 -37 -11 -92 37 -92 51 0 74 66 34 94 -29 21 -51 20
-71 -2z m77 -24 c8 -14 6 -22 -10 -39 -25 -25 -60 -19 -69 12 -14 44 54 67 79
27z"/>
<path d="M6070 1590 c-11 -11 -20 -28 -20 -38 0 -24 31 -52 58 -52 47 0 69 61
34 93 -25 22 -48 21 -72 -3z m70 -15 c27 -32 -23 -82 -55 -55 -15 13 -20 51
-8 63 12 12 50 7 63 -8z"/>
<path d="M6306 1591 c-26 -29 -17 -73 17 -85 38 -14 61 2 65 45 6 54 -47 79
-82 40z m72 -33 c2 -19 -3 -30 -17 -38 -29 -15 -61 3 -61 35 0 26 13 35 50 32
19 -2 26 -8 28 -29z"/>
<path d="M6540 1590 c-36 -36 -16 -90 34 -90 51 0 74 66 34 94 -30 21 -44 20
-68 -4z m74 -22 c8 -14 6 -22 -10 -39 -37 -37 -87 -3 -63 42 13 25 57 22 73
-3z"/>
<path d="M6770 1590 c-11 -11 -20 -28 -20 -38 0 -41 69 -69 98 -40 18 18 14
63 -6 81 -25 22 -48 21 -72 -3z m70 -15 c27 -32 -23 -82 -55 -55 -15 13 -20
51 -8 63 12 12 50 7 63 -8z"/>
<path d="M7007 1592 c-23 -25 -22 -69 2 -82 46 -24 84 -3 84 47 0 47 -55 69
-86 35z m71 -34 c2 -19 -3 -30 -17 -38 -29 -15 -61 3 -61 35 0 26 13 35 50 32
19 -2 26 -8 28 -29z"/>
<path d="M7240 1590 c-25 -25 -26 -52 -2 -73 24 -22 55 -21 75 1 23 26 21 58
-5 76 -30 21 -44 20 -68 -4z m70 -15 c14 -17 5 -51 -17 -59 -38 -15 -71 22
-51 58 11 20 51 21 68 1z"/>
<path d="M7470 1590 c-24 -24 -25 -38 -4 -68 17 -24 62 -30 82 -10 18 18 14
63 -6 81 -25 22 -48 21 -72 -3z m68 -12 c32 -32 -18 -87 -53 -58 -15 13 -20
51 -8 63 11 11 48 8 61 -5z"/>
<path d="M7707 1592 c-23 -25 -22 -69 2 -82 32 -16 59 -12 76 14 36 55 -35
116 -78 68z m71 -33 c4 -36 -21 -55 -53 -41 -44 20 -24 76 25 70 18 -2 26 -10
28 -29z"/>
<path d="M7940 1590 c-11 -11 -20 -26 -20 -33 0 -24 31 -57 55 -57 50 0 73 60
37 93 -25 22 -48 21 -72 -3z m70 -15 c25 -30 -11 -72 -51 -60 -19 6 -27 54
-12 68 12 12 50 7 63 -8z"/>
<path d="M8169 1584 c-22 -23 -23 -27 -8 -52 9 -17 25 -28 42 -30 53 -6 78 41
45 83 -25 32 -48 32 -79 -1z m77 -21 c5 -19 2 -30 -11 -40 -11 -7 -22 -13 -25
-13 -3 0 -14 6 -25 13 -13 10 -16 21 -11 40 5 22 12 27 36 27 24 0 31 -5 36
-27z"/>
<path d="M8407 1592 c-23 -25 -22 -69 2 -82 31 -16 59 -12 75 12 21 30 20 44
-4 68 -25 25 -52 26 -73 2z m71 -39 c2 -24 -1 -33 -17 -38 -26 -8 -61 11 -61
33 0 26 21 43 50 40 20 -2 26 -9 28 -35z"/>
<path d="M8652 1603 c-25 -10 -34 -53 -17 -79 28 -42 95 -25 95 25 0 44 -38
70 -78 54z m56 -25 c32 -32 -18 -87 -53 -58 -15 13 -20 51 -8 63 11 11 48 8
61 -5z"/>
<path d="M8872 1585 c-31 -39 -10 -85 39 -85 20 0 34 8 45 26 16 24 16 27 -3
52 -27 37 -56 39 -81 7z m72 -11 c11 -27 7 -43 -14 -54 -40 -22 -80 26 -48 58
17 17 55 15 62 -4z"/>
<path d="M9107 1592 c-33 -37 -11 -92 37 -92 26 0 56 29 56 53 0 23 -35 57
-58 57 -11 0 -26 -8 -35 -18z m73 -21 c21 -39 -19 -73 -60 -51 -22 12 -26 40
-8 58 18 18 56 14 68 -7z"/>
<path d="M9346 1597 c-36 -26 -16 -97 26 -97 54 0 79 58 40 93 -22 20 -42 21
-66 4z m62 -19 c32 -32 -18 -87 -53 -58 -15 13 -20 51 -8 63 11 11 48 8 61 -5z"/>
<path d="M4895 1346 c-25 -38 -3 -76 46 -76 32 0 49 17 49 50 0 34 -17 50 -52
50 -18 0 -33 -8 -43 -24z m79 -8 c16 -26 -4 -53 -40 -53 -23 0 -30 5 -32 23
-7 47 47 69 72 30z"/>
<path d="M5130 1351 c-26 -49 -2 -84 52 -79 69 6 57 98 -13 98 -18 0 -32 -7
-39 -19z m74 -10 c14 -15 15 -24 6 -40 -19 -36 -80 -22 -80 19 0 39 46 52 74
21z"/>
<path d="M5365 1350 c-15 -16 -17 -26 -9 -48 8 -22 16 -28 47 -30 31 -3 39 1
49 22 27 60 -43 105 -87 56z m75 -10 c15 -28 -4 -60 -36 -60 -28 0 -39 19 -30
55 8 31 50 35 66 5z"/>
<path d="M5602 1358 c-7 -7 -12 -24 -12 -38 0 -33 17 -50 50 -50 33 0 50 17
50 50 0 33 -17 50 -50 50 -14 0 -31 -5 -38 -12z m66 -10 c17 -17 15 -57 -3
-64 -8 -4 -26 -3 -40 0 -41 11 -28 76 15 76 9 0 21 -5 28 -12z"/>
<path d="M5828 1345 c-8 -19 -8 -31 0 -51 10 -21 18 -25 49 -22 31 2 39 8 47
30 20 58 -71 98 -96 43z m80 -5 c9 -15 10 -26 2 -40 -14 -26 -56 -26 -70 0
-25 46 40 84 68 40z"/>
<path d="M6065 1350 c-15 -16 -17 -26 -9 -48 8 -23 15 -27 48 -27 48 0 65 21
50 62 -12 37 -61 44 -89 13z m75 -10 c15 -28 -4 -60 -36 -60 -28 0 -39 19 -30
55 8 31 50 35 66 5z"/>
<path d="M6302 1358 c-7 -7 -12 -24 -12 -38 0 -33 17 -50 50 -50 33 0 50 17
50 50 0 33 -17 50 -50 50 -14 0 -31 -5 -38 -12z m68 -12 c6 -8 10 -25 8 -38
-6 -42 -78 -32 -78 11 0 37 46 55 70 27z"/>
<path d="M6528 1345 c-18 -41 3 -75 47 -75 44 0 65 34 47 75 -9 20 -19 25 -47
25 -28 0 -38 -5 -47 -25z m84 -10 c8 -19 8 -28 -2 -40 -32 -38 -94 1 -70 45
16 29 58 26 72 -5z"/>
<path d="M6766 1351 c-24 -27 -14 -69 18 -77 55 -14 87 15 70 63 -12 36 -61
44 -88 14z m78 -13 c16 -26 -4 -53 -40 -53 -23 0 -30 5 -32 23 -7 47 47 69 72
30z"/>
<path d="M7002 1358 c-7 -7 -12 -24 -12 -38 0 -35 17 -50 57 -50 43 0 63 39
38 76 -17 26 -62 33 -83 12z m68 -12 c6 -8 10 -25 8 -38 -6 -42 -78 -32 -78
11 0 37 46 55 70 27z"/>
<path d="M7228 1346 c-8 -20 -8 -32 0 -52 10 -21 18 -25 49 -22 45 4 61 26 47
65 -8 23 -16 29 -47 31 -31 3 -39 -1 -49 -22z m86 -8 c15 -24 -3 -52 -37 -56
-33 -4 -53 28 -37 59 14 25 58 23 74 -3z"/>
<path d="M7466 1348 c-9 -12 -16 -28 -16 -34 0 -19 35 -44 61 -44 32 0 49 17
49 50 0 14 -5 31 -12 38 -20 20 -65 14 -82 -10z m78 -10 c15 -25 -3 -52 -37
-56 -21 -3 -28 2 -33 22 -12 49 43 76 70 34z"/>
<path d="M7702 1358 c-7 -7 -12 -24 -12 -38 0 -35 17 -50 57 -50 43 0 63 39
38 76 -17 26 -62 33 -83 12z m66 -7 c8 -5 12 -21 10 -37 -3 -32 -38 -45 -64
-24 -40 34 9 90 54 61z"/>
<path d="M7928 1345 c-18 -40 3 -75 45 -75 40 0 57 15 57 50 0 35 -17 50 -57
50 -26 0 -36 -6 -45 -25z m86 -7 c16 -26 -4 -53 -40 -53 -23 0 -30 5 -32 23
-2 13 -1 30 2 38 8 20 56 14 70 -8z"/>
<path d="M8164 1345 c-15 -23 -15 -27 0 -50 11 -17 26 -25 46 -25 20 0 35 8
46 25 15 23 15 27 0 50 -11 17 -26 25 -46 25 -20 0 -35 -8 -46 -25z m76 0 c7
-8 10 -25 6 -40 -5 -20 -13 -25 -36 -25 -23 0 -31 5 -36 25 -7 29 10 55 36 55
10 0 23 -7 30 -15z"/>
<path d="M8402 1358 c-7 -7 -12 -24 -12 -38 0 -35 17 -50 57 -50 42 0 60 31
44 73 -9 22 -17 27 -44 27 -18 0 -38 -5 -45 -12z m73 -38 c0 -29 -4 -36 -23
-38 -43 -6 -69 37 -40 66 7 7 24 12 38 10 21 -3 25 -8 25 -38z"/>
<path d="M8632 1345 c-19 -41 0 -75 41 -75 40 0 57 15 57 50 0 34 -17 50 -55
50 -24 0 -35 -6 -43 -25z m82 -7 c16 -26 -4 -53 -40 -53 -23 0 -30 5 -32 23
-2 13 -1 30 2 38 8 20 56 14 70 -8z"/>
<path d="M8864 1345 c-15 -23 -15 -27 0 -50 11 -17 26 -25 46 -25 20 0 35 8
46 25 15 23 15 27 0 50 -11 17 -26 25 -46 25 -20 0 -35 -8 -46 -25z m76 0 c7
-8 10 -25 6 -40 -11 -41 -76 -29 -76 15 0 36 47 53 70 25z"/>
<path d="M9100 1351 c-25 -47 -5 -81 47 -81 42 0 63 35 45 75 -15 32 -75 36
-92 6z m80 -11 c8 -14 8 -26 0 -40 -19 -35 -80 -20 -80 20 0 40 61 55 80 20z"/>
<path d="M9335 1346 c-25 -37 -5 -76 38 -76 40 0 57 15 57 50 0 34 -17 50 -52
50 -18 0 -33 -8 -43 -24z m79 -8 c16 -26 -4 -53 -40 -53 -23 0 -30 5 -32 23
-7 47 47 69 72 30z"/>
<path d="M4912 1133 c-25 -10 -34 -53 -17 -79 30 -46 95 -24 95 31 0 44 -34
66 -78 48z m52 -16 c38 -27 -2 -95 -41 -71 -25 16 -29 55 -7 71 10 7 21 13 24
13 3 0 14 -6 24 -13z"/>
<path d="M5136 1124 c-34 -34 -9 -94 39 -94 24 0 55 33 55 57 0 20 -38 53 -59
53 -11 0 -27 -7 -35 -16z m66 -11 c10 -9 18 -21 18 -26 0 -15 -31 -47 -46 -47
-17 0 -44 28 -44 45 0 16 27 45 42 45 6 0 20 -7 30 -17z"/>
<path d="M5367 1122 c-33 -36 -8 -92 40 -92 25 0 53 30 53 57 0 46 -62 69 -93
35z m67 -8 c21 -21 20 -37 -5 -60 -24 -22 -52 -10 -57 25 -7 43 32 65 62 35z"/>
<path d="M5608 1129 c-12 -6 -18 -22 -18 -45 0 -43 34 -64 75 -46 20 9 25 19
25 46 0 48 -40 70 -82 45z m56 -12 c38 -27 -2 -95 -41 -71 -25 16 -29 55 -7
71 10 7 21 13 24 13 3 0 14 -6 24 -13z"/>
<path d="M5837 1122 c-22 -24 -21 -55 1 -75 24 -22 55 -21 75 1 23 26 21 58
-5 76 -29 21 -51 20 -71 -2z m65 -9 c10 -9 18 -21 18 -26 0 -15 -31 -47 -46
-47 -17 0 -44 28 -44 45 0 16 27 45 42 45 6 0 20 -7 30 -17z"/>
<path d="M6070 1120 c-24 -24 -25 -38 -4 -68 18 -27 55 -29 77 -4 50 55 -21
124 -73 72z m64 -6 c9 -8 16 -22 16 -29 0 -17 -27 -45 -44 -45 -19 0 -36 22
-36 45 0 41 36 58 64 29z"/>
<path d="M6306 1127 c-12 -9 -17 -23 -14 -47 2 -28 9 -37 31 -44 38 -14 61 2
65 45 4 35 -16 59 -48 59 -9 0 -24 -6 -34 -13z m58 -10 c22 -16 18 -55 -6 -71
-40 -24 -80 44 -42 71 10 7 21 13 24 13 3 0 14 -6 24 -13z"/>
<path d="M6537 1122 c-33 -36 -8 -92 40 -92 25 0 53 30 53 57 0 46 -62 69 -93
35z m69 -13 c13 -15 16 -24 8 -36 -20 -32 -41 -38 -63 -19 -25 23 -26 39 -5
60 21 21 37 20 60 -5z"/>
<path d="M6770 1120 c-24 -24 -25 -38 -4 -68 29 -41 94 -19 94 33 0 51 -54 71
-90 35z m64 -6 c19 -18 20 -28 6 -55 -12 -21 -40 -25 -58 -7 -18 18 -15 55 6
67 23 14 28 14 46 -5z"/>
<path d="M7008 1129 c-22 -13 -24 -62 -2 -83 35 -35 87 -11 87 41 0 43 -46 65
-85 42z m56 -12 c38 -27 -2 -95 -41 -71 -25 16 -29 55 -7 71 10 7 21 13 24 13
3 0 14 -6 24 -13z"/>
<path d="M7233 1114 c-15 -24 -15 -29 -2 -53 18 -32 54 -39 80 -15 24 22 24
56 1 77 -27 25 -59 21 -79 -9z m73 -5 c20 -22 13 -43 -20 -63 -14 -9 -21 -6
-36 12 -19 23 -17 50 4 64 18 13 32 9 52 -13z"/>
<path d="M7470 1120 c-24 -24 -25 -38 -4 -68 29 -41 94 -19 94 33 0 51 -54 71
-90 35z m64 -6 c19 -18 20 -28 6 -55 -12 -21 -40 -25 -58 -7 -18 18 -15 55 6
67 23 14 28 14 46 -5z"/>
<path d="M7706 1124 c-34 -34 -9 -94 39 -94 24 0 55 33 55 57 0 20 -38 53 -59
53 -11 0 -27 -7 -35 -16z m55 -4 c23 -13 25 -52 4 -70 -12 -10 -21 -10 -40 -2
-30 14 -34 56 -7 71 21 13 20 13 43 1z"/>
<path d="M7940 1120 c-24 -24 -25 -38 -4 -68 18 -27 55 -29 77 -4 22 24 21 55
-1 75 -25 22 -48 21 -72 -3z m66 -11 c19 -22 13 -43 -18 -63 -34 -21 -66 42
-36 72 17 17 32 15 54 -9z"/>
<path d="M8170 1120 c-24 -24 -25 -38 -4 -68 35 -50 120 -1 92 53 -22 40 -57
46 -88 15z m65 -4 c16 -12 18 -19 10 -42 -11 -32 -38 -42 -60 -24 -20 17 -19
57 3 69 22 14 25 13 47 -3z"/>
<path d="M8406 1124 c-34 -33 -7 -94 42 -94 21 0 52 34 52 57 0 20 -38 53 -59
53 -11 0 -27 -7 -35 -16z m64 -14 c17 -17 18 -24 10 -41 -16 -29 -38 -34 -60
-14 -24 22 -25 38 -4 59 20 21 30 20 54 -4z"/>
<path d="M8640 1120 c-24 -24 -25 -38 -4 -68 18 -27 55 -29 77 -4 50 55 -21
124 -73 72z m64 -6 c21 -21 20 -37 -5 -60 -15 -14 -24 -16 -37 -8 -24 16 -28
55 -6 71 23 17 29 16 48 -3z"/>
<path d="M8878 1128 c-40 -31 -15 -98 37 -98 21 0 55 36 55 60 0 17 -39 50
-58 50 -10 0 -25 -6 -34 -12z m53 -8 c35 -19 18 -80 -23 -80 -16 0 -38 27 -38
49 0 10 27 41 36 41 3 0 14 -5 25 -10z"/>
<path d="M9107 1122 c-22 -24 -21 -55 1 -75 26 -23 58 -21 76 5 21 30 20 44
-4 68 -25 25 -52 26 -73 2z m59 0 c19 -13 23 -39 8 -61 -18 -25 -31 -26 -56
-4 -22 20 -23 37 -2 57 17 17 33 20 50 8z"/>
<path d="M9346 1127 c-21 -16 -24 -60 -6 -82 28 -34 90 -7 90 40 0 46 -47 69
-84 42z m58 -13 c9 -8 16 -22 16 -29 0 -17 -27 -45 -44 -45 -35 0 -49 61 -18
79 23 14 28 14 46 -5z"/>
<path d="M5142 894 c-24 -16 -28 -44 -12 -75 21 -39 100 -12 100 34 0 18 -37
57 -55 57 -6 0 -21 -7 -33 -16z m68 -25 c9 -16 8 -25 -6 -40 -28 -31 -74 -18
-74 21 0 41 61 55 80 19z"/>
<path d="M5370 890 c-11 -11 -20 -28 -20 -38 0 -46 79 -71 100 -33 16 31 12
59 -12 75 -30 21 -44 20 -68 -4z m70 -19 c5 -11 7 -26 4 -35 -8 -21 -42 -30
-59 -16 -15 13 -20 51 -8 63 13 14 53 6 63 -12z"/>
<path d="M5612 894 c-24 -17 -30 -62 -10 -82 7 -7 24 -12 38 -12 33 0 50 17
50 51 0 24 -30 59 -50 59 -3 0 -16 -7 -28 -16z m56 -13 c18 -11 11 -51 -10
-65 -23 -14 -52 3 -56 34 -5 34 34 52 66 31z"/>
<path d="M5842 894 c-24 -16 -28 -44 -12 -75 21 -39 100 -12 100 34 0 18 -37
57 -55 57 -6 0 -21 -7 -33 -16z m69 -25 c9 -18 7 -25 -9 -41 -23 -24 -58 -17
-67 13 -14 44 53 69 76 28z"/>
<path d="M6072 890 c-12 -12 -22 -29 -22 -39 0 -40 69 -68 98 -39 20 20 14 65
-10 82 -29 21 -40 20 -66 -4z m68 -15 c29 -35 -26 -85 -58 -53 -13 13 -16 50
-5 61 12 12 50 7 63 -8z"/>
<path d="M6312 894 c-24 -17 -30 -62 -10 -82 7 -7 24 -12 38 -12 33 0 50 17
50 51 0 24 -30 59 -50 59 -3 0 -16 -7 -28 -16z m56 -13 c18 -11 11 -51 -10
-65 -23 -14 -52 3 -56 34 -5 34 34 52 66 31z"/>
<path d="M6540 890 c-36 -36 -18 -90 30 -90 56 0 82 64 38 94 -30 21 -44 20
-68 -4z m70 -15 c14 -17 5 -51 -17 -59 -22 -9 -50 1 -57 20 -16 41 45 73 74
39z"/>
<path d="M6772 887 c-12 -13 -22 -30 -22 -39 0 -37 70 -64 98 -36 20 20 14 65
-10 82 -30 21 -41 20 -66 -7z m72 -19 c22 -35 -27 -74 -59 -48 -18 15 -20 56
-2 64 22 9 50 1 61 -16z"/>
<path d="M7012 894 c-24 -17 -30 -62 -10 -82 17 -17 63 -15 78 3 18 22 15 64
-6 80 -24 19 -35 18 -62 -1z m52 -10 c10 -4 16 -18 16 -35 0 -22 -6 -30 -25
-35 -43 -11 -73 34 -43 64 13 13 28 15 52 6z"/>
<path d="M7240 890 c-36 -36 -16 -90 35 -90 52 0 74 65 33 94 -30 21 -44 20
-68 -4z m68 -12 c18 -18 14 -46 -8 -58 -41 -22 -81 12 -60 51 12 21 50 25 68
7z"/>
<path d="M7469 884 c-22 -23 -23 -27 -8 -52 16 -30 61 -41 85 -21 22 18 17 65
-8 83 -31 22 -41 20 -69 -10z m71 -9 c26 -32 -13 -81 -47 -59 -35 22 -23 74
17 74 10 0 23 -7 30 -15z"/>
<path d="M7712 894 c-24 -17 -30 -62 -10 -82 21 -21 66 -14 83 12 17 25 11 53
-14 73 -21 16 -32 16 -59 -3z m66 -41 c2 -24 -1 -33 -17 -38 -26 -8 -61 11
-61 33 0 26 21 43 50 40 20 -2 26 -9 28 -35z"/>
<path d="M7940 890 c-24 -24 -25 -38 -4 -68 16 -24 44 -28 75 -12 27 15 25 64
-3 84 -30 21 -44 20 -68 -4z m68 -12 c30 -30 -6 -76 -48 -63 -20 6 -29 53 -13
68 11 11 48 8 61 -5z"/>
<path d="M8171 884 c-25 -32 -25 -33 -5 -62 21 -31 69 -30 89 2 19 28 9 58
-25 76 -28 15 -36 13 -59 -16z m69 -9 c26 -32 -13 -81 -47 -59 -35 22 -23 74
17 74 10 0 23 -7 30 -15z"/>
<path d="M8412 894 c-34 -23 -30 -69 8 -89 29 -15 31 -15 55 9 30 30 31 50 5
76 -24 24 -38 25 -68 4z m66 -41 c2 -24 -1 -33 -17 -38 -26 -8 -61 11 -61 33
0 26 21 43 50 40 20 -2 26 -9 28 -35z"/>
<path d="M8652 903 c-7 -3 -18 -16 -23 -30 -13 -36 12 -73 49 -73 35 0 52 17
52 51 0 40 -41 67 -78 52z m56 -25 c30 -30 -6 -76 -48 -63 -20 6 -29 53 -13
68 11 11 48 8 61 -5z"/>
<path d="M8888 899 c-52 -30 -37 -99 22 -99 60 0 74 71 20 100 -22 12 -21 12
-42 -1z m52 -24 c26 -32 -13 -81 -47 -59 -35 22 -23 74 17 74 10 0 23 -7 30
-15z"/>
<path d="M9112 894 c-33 -23 -30 -69 6 -88 59 -31 109 37 62 84 -24 24 -38 25
-68 4z m68 -23 c21 -39 -19 -73 -60 -51 -22 12 -26 40 -8 58 18 18 56 14 68
-7z"/>
<path d="M9346 897 c-21 -16 -24 -60 -6 -82 15 -18 61 -20 78 -3 20 20 14 65
-10 82 -27 19 -39 20 -62 3z m62 -19 c30 -30 0 -75 -43 -64 -19 5 -25 13 -25
35 0 15 3 31 7 34 11 11 48 8 61 -5z"/>
<path d="M4856 840 c-132 -52 -192 -198 -132 -325 27 -57 53 -84 114 -115 62
-33 161 -26 228 16 167 103 142 355 -42 424 -67 25 -105 25 -168 0z m179 -19
c55 -25 100 -79 121 -146 15 -48 16 -63 6 -103 -39 -149 -191 -224 -321 -157
-63 31 -97 73 -117 142 -24 82 -7 150 52 213 24 26 59 52 77 58 52 16 138 13
182 -7z"/>
<path d="M5365 650 c-40 -45 20 -109 71 -75 26 17 30 44 14 76 -14 25 -62 25
-85 -1z m75 -10 c16 -31 -4 -62 -38 -58 -19 2 -28 10 -30 26 -7 47 47 72 68
32z"/>
<path d="M5602 658 c-7 -7 -12 -27 -12 -45 0 -27 5 -35 25 -43 16 -6 34 -6 50
0 20 8 25 16 25 43 0 18 -5 38 -12 45 -15 15 -61 15 -76 0z m68 -12 c6 -8 10
-25 8 -38 -2 -19 -9 -23 -38 -23 -29 0 -36 4 -38 23 -4 28 14 52 38 52 10 0
23 -7 30 -14z"/>
<path d="M5830 651 c-16 -32 -12 -59 14 -76 51 -34 111 30 71 75 -23 26 -71
26 -85 1z m76 -12 c23 -25 9 -52 -28 -57 -35 -4 -54 21 -40 53 14 30 42 32 68
4z"/>
<path d="M6065 650 c-40 -45 20 -109 71 -75 26 17 30 44 14 76 -14 25 -62 25
-85 -1z m77 -15 c14 -32 -5 -57 -41 -53 -18 2 -27 10 -29 26 -7 50 49 72 70
27z"/>
<path d="M6302 658 c-21 -21 -14 -66 12 -83 37 -25 76 -5 76 38 0 18 -5 38
-12 45 -15 15 -61 15 -76 0z m68 -12 c6 -8 10 -25 8 -38 -2 -19 -9 -23 -38
-23 -29 0 -36 4 -38 23 -4 28 14 52 38 52 10 0 23 -7 30 -14z"/>
<path d="M6530 649 c-28 -52 28 -106 76 -74 14 9 24 25 24 39 0 50 -78 78
-100 35z m76 -10 c14 -15 16 -24 8 -37 -16 -24 -55 -28 -71 -6 -17 23 -16 29
3 48 21 21 37 20 60 -5z"/>
<path d="M6765 650 c-40 -45 20 -109 71 -75 26 17 30 44 14 76 -14 25 -62 25
-85 -1z m75 -10 c6 -12 8 -30 5 -41 -10 -30 -69 -23 -73 9 -7 47 47 72 68 32z"/>
<path d="M7002 658 c-21 -21 -15 -66 12 -83 48 -31 98 15 72 67 -13 26 -64 36
-84 16z m68 -12 c6 -8 10 -25 8 -38 -6 -42 -78 -32 -78 11 0 37 46 55 70 27z"/>
<path d="M7236 654 c-45 -45 17 -114 70 -79 29 19 31 55 6 78 -23 21 -56 22
-76 1z m68 -10 c29 -29 12 -64 -31 -64 -19 0 -43 25 -43 44 0 10 32 36 45 36
7 0 21 -7 29 -16z"/>
<path d="M7464 645 c-32 -50 22 -103 72 -70 26 17 33 62 12 83 -21 21 -66 14
-84 -13z m76 0 c7 -9 10 -25 6 -40 -6 -22 -11 -26 -39 -23 -25 2 -33 8 -35 26
-7 44 41 70 68 37z"/>
<path d="M7702 658 c-20 -20 -14 -66 11 -82 50 -33 105 21 72 70 -17 26 -62
33 -83 12z m68 -12 c6 -8 10 -25 8 -38 -6 -42 -78 -32 -78 11 0 37 46 55 70
27z"/>
<path d="M7934 645 c-20 -31 -10 -63 23 -76 53 -20 97 45 57 85 -23 24 -61 20
-80 -9z m80 -7 c16 -26 -4 -53 -40 -53 -25 0 -30 4 -32 29 -6 46 47 63 72 24z"/>
<path d="M8165 646 c-30 -45 19 -100 66 -75 33 17 42 47 24 75 -21 33 -69 33
-90 0z m75 -1 c7 -8 10 -25 6 -40 -5 -20 -13 -25 -36 -25 -23 0 -31 5 -36 25
-7 29 10 55 36 55 10 0 23 -7 30 -15z"/>
<path d="M8400 651 c-16 -32 -12 -59 14 -76 50 -33 104 20 72 70 -21 31 -70
34 -86 6z m70 -5 c6 -8 10 -25 8 -38 -6 -42 -78 -32 -78 11 0 37 46 55 70 27z"/>
<path d="M8636 647 c-33 -50 21 -105 70 -72 26 17 33 62 12 83 -20 20 -66 14
-82 -11z m78 -9 c16 -26 -4 -53 -40 -53 -23 0 -30 5 -32 23 -7 47 47 69 72 30z"/>
<path d="M8865 646 c-13 -19 -14 -29 -5 -45 24 -46 79 -48 99 -4 27 59 -59
103 -94 49z m75 -1 c7 -8 10 -25 6 -40 -5 -20 -13 -25 -36 -25 -23 0 -31 5
-36 25 -7 29 10 55 36 55 10 0 23 -7 30 -15z"/>
<path d="M9106 654 c-40 -39 4 -105 56 -85 58 22 44 101 -17 101 -13 0 -31 -7
-39 -16z m68 -10 c19 -18 19 -20 6 -45 -19 -34 -80 -19 -80 21 0 38 46 53 74
24z"/>
<path d="M9342 658 c-25 -31 -17 -76 14 -89 20 -7 32 -6 50 6 26 17 33 62 12
83 -16 16 -63 15 -76 0z m72 -20 c16 -26 -4 -53 -40 -53 -23 0 -30 5 -32 23
-7 47 47 69 72 30z"/>
<path d="M5142 424 c-24 -16 -28 -44 -12 -75 21 -39 100 -12 100 34 0 20 -34
57 -53 57 -7 0 -23 -7 -35 -16z m69 -26 c13 -23 -13 -58 -42 -58 -39 0 -49 74
-11 83 25 5 41 -3 53 -25z"/>
<path d="M5370 420 c-25 -25 -26 -52 -2 -73 37 -34 92 -11 92 38 0 24 -33 55
-57 55 -7 0 -22 -9 -33 -20z m74 -23 c7 -27 -10 -57 -32 -57 -25 0 -42 20 -42
47 0 43 63 52 74 10z"/>
<path d="M5608 429 c-21 -12 -24 -69 -6 -87 7 -7 24 -12 38 -12 35 0 50 17 50
57 0 45 -41 66 -82 42z m56 -12 c22 -16 18 -55 -6 -71 -40 -24 -80 44 -42 71
10 7 21 13 24 13 3 0 14 -6 24 -13z"/>
<path d="M5842 424 c-41 -28 -19 -94 32 -94 28 0 56 29 56 58 0 20 -33 52 -55
52 -6 0 -21 -7 -33 -16z m75 -30 c7 -19 -24 -54 -48 -54 -39 0 -49 74 -11 83
22 5 51 -10 59 -29z"/>
<path d="M6070 420 c-25 -25 -26 -52 -2 -73 37 -34 92 -11 92 38 0 24 -33 55
-57 55 -7 0 -22 -9 -33 -20z m75 -21 c3 -10 1 -27 -5 -39 -20 -37 -70 -19 -70
27 0 41 63 52 75 12z"/>
<path d="M6308 429 c-21 -12 -24 -69 -6 -87 7 -7 24 -12 38 -12 35 0 50 17 50
57 0 45 -41 66 -82 42z m56 -12 c22 -16 18 -55 -6 -71 -40 -24 -80 44 -42 71
10 7 21 13 24 13 3 0 14 -6 24 -13z"/>
<path d="M6540 420 c-36 -36 -16 -90 34 -90 51 0 74 66 34 94 -30 21 -44 20
-68 -4z m77 -26 c7 -19 -24 -54 -48 -54 -38 0 -47 74 -10 83 21 5 51 -10 58
-29z"/>
<path d="M6770 420 c-24 -24 -25 -38 -4 -68 20 -28 69 -30 84 -3 16 31 12 59
-12 75 -30 21 -44 20 -68 -4z m75 -21 c3 -10 1 -27 -5 -39 -20 -37 -70 -19
-70 27 0 41 63 52 75 12z"/>
<path d="M7020 433 c-21 -8 -30 -24 -30 -53 0 -33 17 -50 51 -50 32 0 52 21
52 57 0 39 -34 60 -73 46z m44 -16 c22 -16 18 -55 -6 -71 -40 -24 -80 44 -42
71 10 7 21 13 24 13 3 0 14 -6 24 -13z"/>
<path d="M7240 420 c-25 -25 -26 -52 -2 -73 24 -22 55 -21 75 1 23 26 21 58
-5 76 -30 21 -44 20 -68 -4z m77 -26 c9 -23 -30 -58 -55 -50 -29 9 -34 44 -11
67 16 16 23 17 40 9 11 -6 23 -18 26 -26z"/>
<path d="M7470 420 c-24 -24 -25 -38 -4 -68 20 -28 69 -30 84 -3 14 28 12 57
-6 75 -21 22 -50 20 -74 -4z m75 -21 c3 -10 1 -27 -5 -39 -20 -37 -70 -19 -70
27 0 41 63 52 75 12z"/>
<path d="M7712 424 c-28 -20 -30 -69 -3 -84 32 -16 59 -12 76 14 24 36 -2 86
-44 86 -3 0 -17 -7 -29 -16z m68 -37 c0 -43 -44 -63 -70 -32 -16 19 -5 62 18
68 27 6 52 -11 52 -36z"/>
<path d="M7940 420 c-24 -24 -25 -38 -4 -68 29 -41 94 -19 94 33 0 24 -33 55
-57 55 -7 0 -22 -9 -33 -20z m76 -25 c8 -20 -14 -55 -34 -55 -40 0 -59 60 -25
79 20 11 51 -2 59 -24z"/>
<path d="M8170 420 c-24 -24 -25 -38 -4 -68 36 -51 122 -5 93 50 -23 43 -57
50 -89 18z m76 -25 c7 -29 -10 -55 -36 -55 -26 0 -43 26 -36 55 5 20 13 25 36
25 23 0 31 -5 36 -25z"/>
<path d="M8412 424 c-41 -29 -19 -94 33 -94 24 0 55 33 55 57 0 17 -36 53 -53
53 -7 0 -23 -7 -35 -16z m68 -24 c11 -21 -13 -60 -39 -60 -41 0 -55 49 -20 74
24 16 45 12 59 -14z"/>
<path d="M8640 420 c-11 -11 -20 -26 -20 -33 0 -24 31 -57 55 -57 52 0 74 65
33 94 -30 21 -44 20 -68 -4z m75 -40 c0 -13 -8 -28 -17 -34 -40 -25 -80 43
-42 71 24 17 59 -5 59 -37z"/>
<path d="M8884 432 c-6 -4 -16 -17 -23 -30 -10 -19 -10 -28 4 -48 35 -54 124
-9 94 48 -14 27 -28 38 -49 38 -8 0 -20 -4 -26 -8z m64 -40 c4 -28 -14 -52
-38 -52 -26 0 -43 26 -36 55 6 22 11 26 39 23 25 -2 33 -8 35 -26z"/>
<path d="M9112 424 c-41 -29 -19 -94 33 -94 24 0 55 33 55 57 0 17 -36 53 -53
53 -7 0 -23 -7 -35 -16z m69 -26 c15 -27 -19 -63 -49 -54 -32 11 -39 46 -13
67 25 20 47 16 62 -13z"/>
<path d="M9346 427 c-36 -26 -16 -97 26 -97 57 0 81 63 36 94 -27 19 -39 20
-62 3z m70 -33 c7 -28 -10 -54 -35 -54 -24 0 -41 20 -41 47 0 45 65 51 76 7z"/>
</g>
</svg>
